<?xml version="1.0" encoding="iso-8859-1"?>
<!-- Generator: Adobe Illustrator 16.0.0, SVG Export Plug-In . SVG Version: 6.00 Build 0)  -->
<!DOCTYPE svg PUBLIC "-//W3C//DTD SVG 1.1//EN" "http://www.w3.org/Graphics/SVG/1.1/DTD/svg11.dtd">
<svg version="1.1" id="Layer_1" xmlns="http://www.w3.org/2000/svg" xmlns:xlink="http://www.w3.org/1999/xlink" x="0px" y="0px"
	 width="2048px" height="1536px" viewBox="0 0 2048 1536" style="enable-background:new 0 0 2048 1536;" xml:space="preserve">
<path style="fill:none;stroke:#231F20;stroke-miterlimit:10;" d="M198.747,454.996c1.545,0.182,3.086,1.781,3.356,4.089
	c0.956,13.395-4.364,30.609-12.318,42.936c-11.583,17.947-24.398,28.345-39.588,30.976c0,0-36.544-0.081-47.839,0
	c-16.417-2.088-27.619-15.924-30.496-25.866c-5.146-17.786,7.914-32.684,24.601-35.981c9.603-1.897,19.41-0.582,25.51,2.527
	c-9.329,6.458-16.505,22.364-14.113,31.933c2.393,9.568,23.561,21.289,23.561,21.289l-3.523,2.659"/>
<path style="fill:none;stroke:#231F20;stroke-miterlimit:10;" d="M198.747,454.996c-1.491-0.175-2.986,0.974-3.341,4.089
	c-0.957,18.298-5.797,32.415-13.037,42.936c-7.654,11.123-18.179,20.69-32.291,24.638c0,0-39.77,0-44.069,0
	c-5.447,0.045-10.187-2.601-10.187-2.601c-5.523-2.938-12.361-7.925-15.59-16.177c-2.214-5.658-3.478-15.313,3.708-22.604
	c8.132-8.252,17.82-9.448,26.072-8.013c-3.707,3.67-10.644,10.645-10.166,26.431c0.312,10.307,6.458,17.223,12.917,21.528
	c7.646,5.099,12.318,6.458,12.318,6.458l2.814-2.124"/>
<path style="fill:none;stroke:#231F20;stroke-miterlimit:10;" d="M131.419,529.993v-3.096l-84.469,0.007
	c0,0,12.127-15.676,31.103-16.418c18.976-0.743,45.789,21.285,45.789,21.285l2.854-2.129"/>
<path style="fill:none;stroke:#231F20;stroke-miterlimit:10;" d="M131.419,529.993v2.974l-102.372,0.029
	c0,0,17.903-25.397,45.872-28.203c27.968-2.805,54.122,23.101,54.122,23.101l-2.345,1.749"/>
<path style="fill:none;stroke:#231F20;stroke-miterlimit:10;" d="M197.25,421.64c-0.063-2.595-0.334-5.12-1.122-5.449
	c-4.647,7.035-20.302,25.855-23.644,30.253c-3.342,4.396-5.628,10.729-2.11,17.061c3.519,6.332,14.95,9.146,22.923,4.468
	c4.745-2.785,5.941-8.355,5.463-13.084c-0.229-2.26-0.841-4.327-1.631-5.807c-2.443-4.573-12.859-15.479-12.859-15.479
	s-12.635-13.047-17.904-17.854s-11.332-10.613-14.336-11.645c-3.003-1.03-9.709-0.13-12.963,1.182
	c-4.357,1.755-7.527,5.174-8.443,8.97c-1.23,5.102,1.231,11.257,7.739,13.72c7.702,2.914,17.435-3.132,19.897-7.529
	s1.703-10.526,1.703-10.526s-26.525-25.564-31.45-27.852c-4.925-2.286-11.96-4.573-21.811-2.639
	c-9.85,1.936-20.051,11.785-20.051,11.785s13.192,10.905,24.652,15.067c7.367,2.676,26.004,5.336,26.004,5.336l1.42-2.316"/>
<path style="fill:none;stroke:#231F20;stroke-miterlimit:10;" d="M197.25,421.64c0.072,2.947-0.121,5.983-0.121,5.983l-15.85,18.644
	c0,0-5.242,6.532-4.891,10.05s4.428,7.358,8.936,7.012c4.574-0.352,7.388-3.858,7.036-8.349
	c-0.353-4.491-11.257-14.868-11.257-14.868s-28.526-28.546-31.484-30.253c-2.146-1.238-6.795-0.215-8.619,0.879
	c-5.275,3.166-5.628,8.267-1.979,11.438c3.241,2.816,10.614,1.733,12.709-2.996c2.094-4.729-2.111-9.321-2.111-9.321
	s-12.195-11.355-15.479-14.775c-3.283-3.419-10.377-10.553-18.468-10.201c-11.599,0.504-15.479,4.925-15.479,4.925
	s7.726,6.442,14.335,9.513c9.059,4.207,26.119,6.845,26.119,6.845l-1.922,3.137"/>
<path style="fill:none;stroke:#231F20;stroke-miterlimit:10;" d="M132.775,389.396c1.885-0.374,3.695-1.181,3.695-1.181
	s-6.455-11.414-8.486-18.988c-3.834-14.3-6.859-26.56-22.78-34.037c-8.338-3.393-17.322-2.183-25.765,5.016
	c8.97,6.332,15.83,11.96,17.941,18.82c2.11,6.859,1.7,11.331,5.804,16.182c5.804,6.859,16.333,7.4,23.218,11.433
	c1.198,0.181,2.27-0.133,3.131-0.586"/>
<path style="fill:none;stroke:#231F20;stroke-miterlimit:10;" d="M132.775,389.396c-1.795,0.355-3.656,0.318-4.087-1.181
	c-8.091-21.099-9.146-33.235-14.599-40.623c-4.521-6.124-12.84-10.025-23.042-7.211c5.98,3.869,10.553,9.674,12.312,14.423
	s1.407,13.016,7.212,17.589c5.804,4.573,21.166,11.885,21.166,11.885s-0.842,1.062-2.205,1.776"/>
<path style="fill:none;stroke:#231F20;stroke-miterlimit:10;" d="M123.595,363.082c0.73,0.167,1.576,0.034,2.535-0.614
	c-0.168-5.903,0.832-18.737,3.164-27.737c2.334-9,5.582-15.544,1.67-24.82c-3.17-7.513-13.736-10.907-20.17-10.679
	c-1.332,13.832-4.665,18.435-6.78,27.142c-2.719,11.191,10.114,19.024,10.114,19.024l2.191,0.173"/>
<path style="fill:none;stroke:#231F20;stroke-miterlimit:10;" d="M123.595,363.082c-2.188-0.499-3.328-3.689-3.328-3.689
	s-0.473-8.662,2.953-18.995c1.574-7.018,4.076-17.333,3.574-23.167c-0.5-5.833-5-12.269-11.666-12.269
	c-1.334,6-2.825,16.104-4.053,20.799c-2.402,9.189,7.525,19.99,7.525,19.99l-2.281-0.181"/>
<path style="fill:none;stroke:#231F20;stroke-miterlimit:10;" d="M128.806,322.05c-0.352,3.727-0.293,7.175,0.266,10.066
	c4.986-9.975,19.715-20.91,30.42-28.923c9.736-7.286,22.274-18.619,28.258-28.26c5.875-9.464,12.884-23.054,13.111-32.194
	c0.198-7.979-10.555-11.696-18.098-10.028s-10.473,7.314-9.953,11.976c0.52,4.661,4.026,8.241,9.288,9.8
	c7.192,2.131,19.22-3.594,18.763-11.748c-0.562-10.009-3.721-21.065-8.18-27.384c-4.627-6.557-13.408-16.056-18.562-20.211
	s-11.969-8.478-17.953-10.306c-5.983-1.829-24.436-3.324-31.749-1.164c-7.314,2.161-12.301,6.15-14.961,17.953
	c-3.324,0.499-9.642-4.488-9.475-14.129c0.166-9.641,10.971-12.633,20.778-13.464c9.809-0.831,15.723,1.331,22.348,5.406
	c9.391,6.317,22.036,16.37,22.036,16.37l2.712-1.608"/>
<path style="fill:none;stroke:#231F20;stroke-miterlimit:10;" d="M128.806,322.05c0.217-2.3,0.589-4.705,1.096-7.152
	c9.809-5.057,30.937-20.632,41.891-30.988c9.143-8.644,20.967-25.691,22.463-36.829c0.332-4.156-0.521-10.214-8.334-9.05
	s-7.147,7.812-4.057,9.893c3.861,2.598,9.376,0.58,10.539-4.906c1.164-5.485-1.125-12.064-3.424-18.196
	c-3.491-9.309-13.487-19.11-22.175-26.353c-7.122-5.938-21.489-8.881-35.074-6.981c-15.46,2.161-17.454,17.786-17.454,17.786
	s-11.941-0.465-19.615-11.47c-4.762-6.828-3.353-20.642,6.773-26.855c8.282-5.083,21.219-6.915,35.156-2.504
	c9.863,3.122,34.083,24.085,34.083,24.085l-2.819,1.671"/>
<path style="fill:none;stroke:#231F20;stroke-miterlimit:10;" d="M145.077,176.846l3.866,0.148c0,0-12.68-13.711-11.107-24.203
	c2.149-14.344,14.42-17.582,29.215-19.89c0.643-0.254,0.469-0.412,0.101-0.591c-9.96-4.843-23.049-4.549-32.837-1.085
	c-13.027,4.609-20.558,14.055-22.36,20.991c-2.663,10.247,1.972,19.892,1.972,19.892l3.34-0.196"/>
<path style="fill:none;stroke:#231F20;stroke-miterlimit:10;" d="M145.077,176.846l-3.191-0.123c0,0-10.08-8.549-10.452-17.645
	c-0.542-13.302,7.221-20.767,7.221-20.767s-10.342,2.85-15.635,9.772c-8.006,10.469-2.172,23.617-2.172,23.617l-3.582,0.211"/>
<path style="fill:none;stroke:#231F20;stroke-miterlimit:10;" d="M162.054,132.262c1.395,0.154,3.157,0.276,5.339,0.308
	c0.702-10.162,1.823-16.535,13.03-27.061c6.251-5.871,15.617-15.109,17.251-16.02s6.08-0.99,6.685-5.876
	c0.838-6.783-6.88-14.761-9.627-17.645"/>
<path style="fill:none;stroke:#231F20;stroke-miterlimit:10;" d="M162.14,132.262c-3.182-0.351-4.459-0.869-4.459-0.869
	s-1.295-10.481,2.074-15.899c4.936-7.937,23.256-16.815,31.535-25.909c-1.177-0.486-6.787-2.224-6.65-7.518
	c0.135-5.293,6.243-11.756,10.18-16.099"/>
<path style="fill:none;stroke:#231F20;stroke-miterlimit:10;" d="M132.548,245.357l-4-1.95c0,0,2.862-30.587,10.555-37.638
	c7.691-7.051,39.523-25.735,47.436-35.256c9.589-11.539,12.18-29.167,0.281-47.874c-10.691-16.81-24.562-32.457-25.203-44.636
	c-0.641-12.18,1.846-29.285,22.357-36.336"/>
<path style="fill:none;stroke:#231F20;stroke-miterlimit:10;" d="M132.548,245.357l4.674,2.278c0,0-0.043-23.917,5.727-33.532
	s31.867-20.627,42.309-30.128c14.792-13.462,21.153-35.257,10.87-58.274c-8.124-18.186-34.589-35.316-21.448-54.135
	c8.014-10.668,11.129-15.539,9.295-29.899"/>
<path style="fill:none;stroke:#231F20;stroke-miterlimit:10;" d="M140.347,248.984l4.891,3.043c0,0,2.893-21.293,11.697-25.11
	c12.505-5.422,22.055,5.641,22.055,5.641"/>
<path style="fill:none;stroke:#231F20;stroke-miterlimit:10;" d="M140.347,248.984l-4.991-3.106c0,0,8.555-27.314,26.521-29.3
	c20.154-2.228,17.113,15.979,17.113,15.979"/>
<path style="fill:none;stroke:#231F20;stroke-miterlimit:10;" d="M195.597,550.06c-1.908-0.435-3.484-1.974-3.312-5.065
	c0.84-16.607-8.135-29.021-18.566-37.302c-8.646-5.842-26.424-15.795-33.424-32.962c-5.715-14.017-2.5-33.5,18.192-49.73
	c13.642-13.77,25.146-22.517,31.646-39.504s11.035-40.599-1.432-75.309c-6.428-18.077-34.404-52.726-71.009-65.483
	c-19.834-3.545-46.074-13.775-52.948-38.294c-1.838-5.549-7.051-14.103-19.23-19.23c10.256-6.411,23.077,6.41,23.077,6.41"/>
<path style="fill:none;stroke:#231F20;stroke-miterlimit:10;" d="M195.597,550.06c2.717,0.619,6.107-0.998,6.082-3.556
	c1.427-11.155-7.381-32.544-20.051-41.106c-20.666-15.833-47.166-32.333-30.346-63.09c9.153-12.423,34.68-28.936,45.846-50.243
	c7.332-24.808,13-51.667,2.303-81.983c-8.698-13.149-31.98-59.391-77.994-72.419c-20.389-4.927-43.338-13.001-45.796-30.61
	c-0.423-5.236,2.776-12.458,16.667-13.461c-11.539-7.692-23.718,0-23.718,0"/>
<path style="fill:none;stroke:#231F20;stroke-miterlimit:10;" d="M198.627,543.93c0.952,1.028,1.545,2.558,1.207,4.587
	c-2.013,3.01-16.608,11.156-30.364,11.072s-20.801-4.445-23.904-7.423c-1.741-1.671-2.109-3.592-1.312-4.794"/>
<path style="fill:none;stroke:#231F20;stroke-miterlimit:10;" d="M198.627,543.93c-1.41-1.522-3.608-1.949-4.749-1.284
	c-6.374,6.291-17.781,10.149-23.484,10.568c-5.704,0.42-13.65-1.9-15.854-3.104s-4.203-3.135-6.375-3.774
	c-1.951-0.404-3.288,0.096-3.912,1.036"/>
<path style="fill:none;stroke:#231F20;stroke-miterlimit:10;" d="M108.554,238.167l2.604,3.038
	c-15.088,0.74-25.593,2.642-33.728,7.544c-10.799,6.509-9.046,21.242-6.805,26.332c2.241,5.089,5.325,10.207,12.13,11.391
	c6.361-0.592,9.63-4.396,14.054-6.657c5.652-2.889,9.911-2.958,17.012-8.136"/>
<path style="fill:none;stroke:#231F20;stroke-miterlimit:10;" d="M108.554,238.167l-2.722-3.175
	c-13.609,0-31.361,2.367-39.793,12.687c-4.899,7.442-6.065,15.863-3.698,25.479c2.367,9.615,9.024,17.751,19.823,21.45
	s19.822,3.292,26.626,0c7.516-4.733,10.06-14.941,5.03-22.929"/>
<path style="fill:none;stroke:#231F20;stroke-miterlimit:10;" d="M73.886,244.744c-0.549-0.847-1.657-1.327-3.786-0.732
	c-10.919,5.922-19.647,20.829-22.458,30.444c-2.811,9.616-2.757,22.89-3.793,27.624c-1.035,4.734-6.71,10.429-13.958,13.831
	c3.55,3.551,10.207,5.03,14.8,1.839c6.588-4.578,6.354-8.939,6.354-8.939"/>
<path style="fill:none;stroke:#231F20;stroke-miterlimit:10;" d="M73.867,244.712c0.947,1.459,0.236,4.007,0.236,4.007
	s-15.085,14.778-19.822,26.184c-3.994,9.616-1.811,19.321,1.387,23.713c3.199,4.393,9.708,8.979,20.21,10.311
	c-2.811,5.029-8.432,7.739-14.201,6.088c-5.77-1.65-10.651-6.236-10.651-6.236"/>
<path style="fill:none;stroke:#231F20;stroke-miterlimit:10;" d="M177.833,103.18c2.134,3.402,4.03,6.746,4.03,6.746
	s-23.812-10.834-42.094-7.9c-18.283,2.935-25.166,6.659-32.051,22.232c-6.884,15.573,10.156,33.743,19.298,36.677
	c18.169,4.289,30.696-3.498,29.454-20.765"/>
<path style="fill:none;stroke:#231F20;stroke-miterlimit:10;" d="M177.833,103.18c-1.075-1.713-2.21-3.442-3.192-4.765
	c-16.59-5.078-36.564-5.755-47.398-1.58c-10.834,4.175-25.504,16.25-27.987,27.875c-2.482,11.624,0.339,23.812,10.722,31.938
	c10.382,8.125,20.464,13.193,35.436,11.285c11.511-1.467,17.785-9.782,19.445-14.588c1.494-4.319,0.867-13.287-8.387-13.174"/>
<path style="fill:none;stroke:#231F20;stroke-miterlimit:10;" d="M143.853,474.523v5.102c0,0-15.885-16.169-30.915-19.813
	c-14.155-3.431-19.13-8.653-17.081-15.03"/>
<path style="fill:none;stroke:#231F20;stroke-miterlimit:10;" d="M143.853,474.523v-4.008c0,0-20.211-12.382-25.449-21.636
	c-4.327-5.237-10.932-8.198-10.932-8.198s-9.565-2.277-11.615,4.1"/>
<path style="fill:none;stroke:#231F20;stroke-miterlimit:10;" d="M111.416,449.563h4.255c0,0-7.507-13.477-6.149-20.269
	c1.14-5.693,9.11-9.337,15.912-10.476"/>
<path style="fill:none;stroke:#231F20;stroke-miterlimit:10;" d="M111.416,449.563H107.7c0,0-12.284-23.685,0-32.794
	c7.288-4.327,11.935-2.733,17.733,2.05"/>
<path style="fill:none;stroke:#231F20;stroke-miterlimit:10;" d="M104.849,448.623c-1.049,1.513-2.608,1.941-2.608,1.941
	c-12.076-2.05-29.86-14.155-40.543-26.735c-8.897-10.476-14.12-28.467-7.695-48.011c5.623-17.104,28.529-31.242,46.411-31.242
	c17.308,0,33.706,5.01,43.441,11.159c11.584,7.317,20.176,11.382,21.236,22.546c0.779,8.199-1.594,15.031-4.326,23.229"/>
<path style="fill:none;stroke:#231F20;stroke-miterlimit:10;" d="M104.849,448.623c0.553-0.797,0.964-1.896,0.93-3.391
	c-21.991-7.283-41.804-21.176-46.131-45.315c-3.68-20.532,7.833-34.13,17.157-40.262c10.911-7.176,27.936-8.931,43.877-6.197
	c15.941,2.732,20.951,10.021,24.141,14.33c3.188,4.311,0.965,16.127,4.326,22.563s6.149,6.533,11.615,11.159"/>
<path style="fill:none;stroke:#231F20;stroke-miterlimit:10;" d="M104.236,450.102v3.872c-18.28-1.387-29.5-0.252-40.09,5.982
	c-11.094,6.53-23.827,27.174-24.71,44.131c-3.392,27.036,10.968,40.027,25.34,43.053c7.186,1.639,10.337-5.925,26.853-5.925
	c10.611-0.127,17.491,2.036,23.701,5.799"/>
<path style="fill:none;stroke:#231F20;stroke-miterlimit:10;" d="M104.236,450.102v-4.322c-10.716-0.63-26.349,1.639-32.652,3.784
	c-14.188,4.828-33.156,19.287-37.821,40.845c-5.596,25.861-0.201,41.478,11.75,54.841s25.899,15.286,37.921,14.143
	c18.806-1.788,22.062-7.713,31.895-12.378"/>
<path style="fill:none;stroke:#231F20;stroke-miterlimit:10;" d="M10.617,558.975h10.537V269.421c0,0-1.282-13.011,17.949-13.011
	c10.897,0,19.872-5.769,25-19.872c5.128-14.103-9.561-32.445-19.872-48.718c-11.539-33.333,8.333-52.564,46.795-47.436
	c-14.103-32.692,3.846-66.026,59.615-54.487c-3.741-40.165,39.103-62.18,39.103-62.18V11.898"/>
<path style="fill:none;stroke:#231F20;stroke-miterlimit:10;" d="M10.617,558.975H0V258.006c0,0,0.046-19.388,22.436-19.388
	c7.489-0.842,19.872-3.362,16.667-17.465c-3.206-14.103-10.257-19.231-19.872-35.897c-3.205-26.282,0.641-52.564,42.949-64.103
	c3.846-30.769,17.308-55.769,70.513-60.256C132.693,26.923,189.744,0,189.744,0v11.898"/>
</svg>
