<?xml version="1.0" encoding="iso-8859-1"?>
<!-- Generator: Adobe Illustrator 16.0.0, SVG Export Plug-In . SVG Version: 6.00 Build 0)  -->
<!DOCTYPE svg PUBLIC "-//W3C//DTD SVG 1.1//EN" "http://www.w3.org/Graphics/SVG/1.1/DTD/svg11.dtd">
<svg version="1.1" xmlns="http://www.w3.org/2000/svg" xmlns:xlink="http://www.w3.org/1999/xlink" x="0px" y="0px"
	 width="739.418px" height="543.406px" viewBox="0 0 739.418 543.406" style="enable-background:new 0 0 739.418 543.406;"
	 xml:space="preserve">
<g id="calligraphy">
	<path style="fill:none;stroke:#231F20;stroke-miterlimit:10;" d="M94.22,168.591c5.684,1.751,10.644,5.537,15.268,9.161
		c0.101,0.079,1.176,1.813,1.216,1.989c-0.399,1.918-2.621,7.471-3.138,9.357c-0.151,0.552-3.614,11.146-4.13,10.742"/>
	<path style="fill:none;stroke:#231F20;stroke-miterlimit:10;" d="M94.22,168.591c-1.428-0.44-7.917,21.514-6.052,22.088
		c5.684,1.751,10.644,5.538,15.269,9.161"/>
	<path style="fill:none;stroke:#231F20;stroke-miterlimit:10;" d="M115.216,161.701c-0.607-0.43-3.979,10.19-4.13,10.741
		c-0.517,1.889-2.839,7.137-3.239,9.058c0.04,0.176,1.216,2.217,1.318,2.29c4.918,3.481,10.195,6.031,15.806,8.189"/>
	<path style="fill:none;stroke:#231F20;stroke-miterlimit:10;" d="M115.216,161.701c4.918,3.481,10.194,6.031,15.806,8.189
		c1.378,0.53-1.68,10.468-1.921,11.347c-0.183,0.665-3.049,11.157-4.13,10.742"/>
	<path style="fill:none;stroke:#231F20;stroke-miterlimit:10;" d="M605.772,278.604c0.421-0.665,0.922-1.294,1.249-2.002
		c4.731-10.227,7.521-21.044,7.521-32.239c0.001-12.756-0.906-25.521-1.701-38.265c-0.897-14.388-2.065-28.759-3.198-43.132
		c-1.415-17.964-2.917-35.921-4.366-53.882c-0.078-0.966-0.01-1.943-0.01-3.492c2.824,2.549,5.103,4.606,7.382,6.664
		c0.419-0.277,0.839-0.554,1.258-0.831c-3.505-13.789-9.315-26.747-15.089-39.92"/>
	<path style="fill:none;stroke:#231F20;stroke-miterlimit:10;" d="M605.772,278.604c-0.275-0.084-0.551-0.168-0.827-0.253
		c0.354-5.629,1.054-11.262,0.986-16.886c-0.118-9.879-0.572-19.76-1.134-29.626c-0.566-9.974-1.417-19.931-2.173-29.893
		c-0.966-12.733-1.978-25.463-2.938-38.196c-0.697-9.243-1.399-18.486-2.003-27.735c-0.88-13.465-1.659-26.937-2.527-40.403
		c-0.085-1.323-0.187-2.795-0.805-3.907c-2.402-4.32-1.032-8.319,0.663-12.36c1.092-2.602,2.143-5.22,3.803-7.839"/>
	<path style="fill:none;stroke:#231F20;stroke-miterlimit:10;" d="M375.761,192.771c0.512-6.78,3.513-9.981,9.221-12.114
		c65.626-24.52,131.157-49.294,196.719-73.99c2.103-0.792,4.252-1.459,6.944-2.377"/>
	<path style="fill:none;stroke:#231F20;stroke-miterlimit:10;" d="M375.761,192.771c2.253-0.751,3.864-1.21,5.418-1.817
		c37.742-14.75,75.441-29.61,113.228-44.246c29.124-11.281,58.345-22.313,87.552-33.377c3.93-1.488,7.075-3.26,6.687-9.04"/>
	<path style="fill:none;stroke:#231F20;stroke-miterlimit:10;" d="M132.835,396.687c0.512-6.78,3.513-9.981,9.221-12.114
		c65.626-24.52,131.158-49.294,196.719-73.989c2.103-0.792,4.252-1.46,6.945-2.378"/>
	<path style="fill:none;stroke:#231F20;stroke-miterlimit:10;" d="M132.835,396.687c2.253-0.751,3.864-1.211,5.418-1.817
		c37.742-14.75,75.441-29.61,113.228-44.246c29.124-11.281,58.345-22.313,87.552-33.378c3.93-1.488,7.075-3.26,6.687-9.04"/>
	<path style="fill:none;stroke:#231F20;stroke-miterlimit:10;" d="M340.948,183.295c0.202,1.642,4.84,4.476,6.408,3.892
		c5.039-1.877,6.343,1.431,7.865,4.424c2.953,5.81,5.591,11.781,9.047,19.152c1.02-4.611,1.867-7.889,2.454-11.213
		c1.151-6.518,1.769-13.159,3.353-19.564c1.174-4.75,3.162-5.067,7.144-2.286c0.687,0.48,1.434,0.875,2.494,1.515"/>
	<path style="fill:none;stroke:#231F20;stroke-miterlimit:10;" d="M340.948,183.295c-0.347-2.831,1.26-6.229,2.949-8.796
		c0.552-0.838,4.818-0.645,5.824,0.478c3.884,4.334,7.312,9.119,10.544,13.978c1.38,2.074,1.864,4.744,3.727,7.077
		c0.739-4.782,1.351-9.587,2.26-14.336c0.62-3.234,1.285-6.553,2.605-9.534c1.501-3.391,3.667-6.884,8.373-4.599
		c4.143,2.012,5.128,6.482,2.482,11.653"/>
	<path style="fill:none;stroke:#231F20;stroke-miterlimit:10;" d="M245.882,181.97c7.13,0.958,14.05,3.247,21.539,2.659
		c4.397-0.372,7.883-4.226,10.09-7.562c3.176-4.808,9.252-8.402,8.274-14.914c-0.138-0.864-0.99-1.475-1.724-1.688
		c-3.86-1.137-12.473-2.319-17.07-2.972c-1.25-0.204-4.736-0.87-7.06-0.875c-4.908-0.006-6.587,5.464-8.812,8.722
		c-1.812,2.62-4.734,5.227-3.549,8.811"/>
	<path style="fill:none;stroke:#231F20;stroke-miterlimit:10;" d="M245.882,181.97c0.489-2.235,3.007-1.412,4.534-1.78
		c5.14-1.267,11.241-2.586,12.271-2.891c3.815-1.193,7.671-2.227,11.279-4.056c-7.205-1.637-14.875-4.242-22.567-3.051
		c-2.013,0.304-1.776,3.449-3.83,3.957"/>
	<path style="fill:none;stroke:#231F20;stroke-miterlimit:10;" d="M519.336,199.537c0.489-2.235,3.008-1.412,4.534-1.78
		c5.14-1.267,11.24-2.587,12.271-2.892c3.815-1.192,7.671-2.227,11.278-4.056c-7.204-1.637-14.875-4.241-22.566-3.05
		c-2.014,0.304-1.776,3.449-3.83,3.956"/>
	<path style="fill:none;stroke:#231F20;stroke-miterlimit:10;" d="M519.336,199.537c7.131,0.958,14.051,3.247,21.539,2.659
		c4.397-0.372,7.883-4.226,10.09-7.562c3.176-4.808,9.253-8.402,8.273-14.914c-0.138-0.864-0.99-1.475-1.724-1.688
		c-3.86-1.137-12.473-2.319-17.07-2.972c-1.25-0.205-4.736-0.87-7.06-0.875c-4.908-0.007-6.587,5.463-8.812,8.721
		c-1.812,2.62-4.734,5.227-3.55,8.811"/>
	<path style="fill:none;stroke:#231F20;stroke-miterlimit:10;" d="M418.345,208.181c0.49-2.235,3.008-1.412,4.534-1.78
		c5.14-1.267,11.24-2.587,12.271-2.891c3.815-1.193,7.672-2.227,11.278-4.056c-7.204-1.636-14.875-4.241-22.566-3.05
		c-2.014,0.304-1.776,3.449-3.829,3.957"/>
	<path style="fill:none;stroke:#231F20;stroke-miterlimit:10;" d="M418.345,208.181c7.131,0.958,14.051,3.247,21.539,2.659
		c4.397-0.372,7.883-4.226,10.09-7.562c3.177-4.808,9.253-8.402,8.273-14.914c-0.137-0.864-0.99-1.475-1.724-1.688
		c-3.86-1.137-12.473-2.319-17.07-2.972c-1.25-0.204-4.736-0.87-7.06-0.875c-4.908-0.007-6.587,5.464-8.812,8.722
		c-1.812,2.62-4.734,5.227-3.549,8.811"/>
	<path style="fill:none;stroke:#231F20;stroke-miterlimit:10;" d="M252.884,255.213l0.547,1.067c2.1,5.84-0.371,18.804-8.425,17.646
		c-14.764-2.123-3.284-35.405-0.619-43.467"/>
	<path style="fill:none;stroke:#231F20;stroke-miterlimit:10;" d="M252.884,255.213c-1.108,3.029-1.834,5.357-3.18,7.155
		c-2.66,3.55-6.35,0.435-7.263-2.857c-2.08-7.495,0.41-14.925,2.113-22.212c0.628-2.678,1.43-4.971-0.16-6.905"/>
	<path style="fill:none;stroke:#231F20;stroke-miterlimit:10;" d="M501.716,321.954l0.223,0.621
		c2.1,5.841-0.371,18.804-8.426,17.646c-14.765-2.122-3.276-35.47-0.612-43.531"/>
	<path style="fill:none;stroke:#231F20;stroke-miterlimit:10;" d="M501.716,321.954c-1.857,2.729-2.158,4.912-3.505,6.709
		c-2.659,3.55-6.35,0.435-7.263-2.857c-2.08-7.495,0.41-14.925,2.112-22.212c0.629-2.678,1.43-4.971-0.16-6.904"/>
	<path style="fill:none;stroke:#231F20;stroke-miterlimit:10;" d="M563.848,237.997c-8.502,8.763-19.024,20.566-32.287,18.73
		c-16.006-2.214,3.695-18.983,5.229-26.369c3.186-15.337-14.146-10.046-19.15-5.66c-0.775,0.68-1.77,3.4-2.447,6.192"/>
	<path style="fill:none;stroke:#231F20;stroke-miterlimit:10;" d="M563.848,237.997c0.638-0.658-0.128,2.975-0.682,4.093
		c-12.037,24.261-42.958,31.586-43.469,15.582c-0.346-10.877,7.107-18.509,12.533-27.112l0.168-0.268
		c-5.531-0.375-12.17,1.783-15.641,6.204c-2.941,3.746-2.678-1.024-1.565-5.605"/>
	<path style="fill:none;stroke:#231F20;stroke-miterlimit:10;" d="M330.902,181.638c0,0.438-0.552,3.208-2.035,3.208
		c-1.481,0-2.345-1.665-2.345-3.515s1.542-4.387,1.359-8.336c-0.115-2.548-1.438-4.477-2.551-5.725v0l-0.003-0.003
		c-0.208-0.233-0.41-0.45-0.593-0.634l-0.017,0.034c-1.888-1.874-7.58-7.676-7.58-9.479c0-2.157,4.32-2.963,5.123-2.963l2.099-3.341
		"/>
	<path style="fill:none;stroke:#231F20;stroke-miterlimit:10;" d="M330.902,181.638c0,0,0.558,0.056,0.496,1.417
		c-0.061,1.362-1.111,5.625-2.405,5.625c-1.299,0-4.076-1.729-4.076-6.547c0-4.67,2.644-5.405-1.969-10.503
		c-0.6-0.554-7.377-6.817-7.912-7.341c-0.555-0.557-1.294-2.413-1.294-3.771c0-4.137,5.68-13.393,10.187-13.393
		c0.76,0,1.383,0.35,1.859,0.867l-1.429,2.89"/>
	<path style="fill:none;stroke:#231F20;stroke-miterlimit:10;" d="M321.628,150.2l4.096-2.243c0,0,1.169,2.003,1.169,2.933
		c0,1.542,1.112,8.704-2.159,15.743l-2.226,4.513c-15.855,23.008-20.028,23.799-39.693,30.096"/>
	<path style="fill:none;stroke:#231F20;stroke-miterlimit:10;" d="M321.628,150.2l0.632,4.024c0.805,0,3.162,5.556,0.378,10.314
		l-2.417,5.181c-14.147,16.575-20.546,21.296-37.316,31.298"/>
	<path style="fill:none;stroke:#231F20;stroke-miterlimit:10;" d="M360.934,356.773l1.714-2.955c-4.5-1.5-5.129-2.856-5.188-5.327
		c0.116-0.897,1.511-2.867,3.371-4.269c1.918-1.807,3.667-1.389,4.482-1.273c1.629,0.229,2.142,1.615,2.682,4.536
		c0.472,2.56,0.064,5.24-0.693,7.732l-3.826,6.595c-2.962,3.326-7.15,6.476-12.503,9.043c-4.014,1.929-7.624,3.912-11.634,5.841
		c-4.54,2.686-7.211,6.88-7.846,11.365c-0.69,4.891,2.693,7.448,10.029,8.485c5.708,0.809,12.807,0.562,20.551-1.251
		c5.529-0.885,9.429-1.998,12.103-3.281c4.945-2.626,7.876-4.422,7.876-4.422"/>
	<path style="fill:none;stroke:#231F20;stroke-miterlimit:10;" d="M358.381,333.571c0.444-1.064,1.104-1.907,1.962-2.554
		c1.858-1.399,3.607-1.984,5.645-1.695c2.036,0.288,3.961,1.392,6.641,3.017c8.278,6.16,13.597,13.109,15.345,20.881
		c-0.025,0.524,0.291,0.87,0.177,1.686c-0.348,2.446-1.55,5.197-3.655,8.214c-2.109,3.023-3.01,2.552-4.715,2.892
		c-2.531,0.28-12.403-1.671-20.679-5.927l2.128-3.487"/>
	<path style="fill:none;stroke:#231F20;stroke-miterlimit:10;" d="M358.381,333.571c-0.76,1.821-0.887,4.29-0.295,7.522
		c5.262-0.233,8.319-0.277,15.498,5.102c4.602,2.729,7.247,6.206,8.866,10.815c0.26,0.751,0.177,1.686,0.119,2.095
		c-0.409-0.058-0.409-0.058-0.815-0.117c-5.453-0.271-17.223-4.512-19.046-5.17l-1.478,2.778"/>
	<path style="fill:none;stroke:#231F20;stroke-miterlimit:10;" d="M360.934,356.773l-1.892,3.251
		c-4.315-1.95-6.393-3.992-5.771-8.385c0.46-3.262,2.167-6.636,4.779-10.422c6.125-0.75,8.62,0.174,15.533,4.978
		c-0.634,4.483-1.506,7.685-2.606,9.608l-3.948,7.342c-4.126,5.652-8.486,10.026-12.558,12.362
		c-3.664,2.395-8.96,4.555-15.942,6.896c-1.743,0.584-2.674,1.284-2.789,2.1c-0.116,0.816,0.641,1.34,1.806,1.918
		c3.497,1.741,9.608,2.606,17.469,2.886c3.318,0.053,11.704-0.427,24.338-1.551c1.687-0.176,2.56-0.468,2.502-0.062"/>
	<path style="fill:none;stroke:#231F20;stroke-miterlimit:10;" d="M458.05,311.427"/>
	<path style="fill:none;stroke:#231F20;stroke-miterlimit:10;" d="M503.847,264.913c0.377-2.979,1.007-5.95,1.086-8.936
		c0.326-12.354-1.506-24.44-5.288-36.185c-0.862-2.677-0.25-4.202,2.099-5.119c3.439-1.341,6.874-2.95,10.463-3.579
		c4.144-0.727,5.628-3.682,6.002-6.805c0.221-1.838-1.508-4.396-3.079-5.854c-2.58-2.393-5.747-4.153-8.526-6.084"/>
	<path style="fill:none;stroke:#231F20;stroke-miterlimit:10;" d="M503.847,264.913c-0.253-0.016-0.984-0.974-0.965-1.432
		c0.517-12.485-2.336-24.537-4.601-36.676c-0.728-3.897-1.294-7.92-1.154-11.857c0.184-5.188,3.391-8.427,8.328-9.938
		c0.588-0.18,1.157-0.426,1.725-0.665c0.181-0.076,0.328-0.229,0.487-0.35c-1.931-3.316-2.844-3.187-8.611,1.546
		c0.196-4.333,0.604-8.154,3.507-11.083c0.577-0.583,0.949-1.125,1.139-1.687l2.901-0.419"/>
	<path style="fill:none;stroke:#231F20;stroke-miterlimit:10;" d="M610.508,356.06l-1.829,1.176
		c-0.325,0.748-0.813,2.229-1.045,3.005c-4.263,14.305-6.846,29.143-7.292,44.096c-0.13,4.366-0.471,9.971,1.734,13.876
		c0.582,2.01,1.929,3.781,3.685,4.914c0.408,0.264,0.839,0.493,1.287,0.683c4.917,2.079,9.012-0.712,10.694-5.405
		c1.656-4.62,1.981-9.919,1.649-14.791"/>
	<path style="fill:none;stroke:#231F20;stroke-miterlimit:10;" d="M610.508,356.06c-0.944,4.193-2.138,9.938-3.021,14.144
		c-2.064,9.831-3.971,19.728-3.158,29.813c0.302,3.743,1.39,7.634,3.04,11.005c2.136,4.363,5.67,4.286,8.3,0.164
		c1.425-2.234,2.392-4.762,3.781-7.599"/>
	<path style="fill:none;stroke:#231F20;stroke-miterlimit:10;" d="M593.58,337.047c0.428-1.72,1.037-3.369,1.516-3.788
		c3.165-2.773,14.122-6.118,12.108,3.578c-0.97,4.67-13.426,15.271-3.306,16.672c8.384,1.161,15.268-6.852,20.363-12.354"/>
	<path style="fill:none;stroke:#231F20;stroke-miterlimit:10;" d="M593.58,337.047c-0.729,2.934-0.928,6.074,0.959,3.671
		c2.194-2.795,6.392-4.159,9.889-3.922l-0.106,0.169c-3.431,5.438-8.143,10.265-7.924,17.141c0.174,5.459,5.946,6.618,12.419,4.125
		l1.452-0.618c5.104-2.363,10.412-6.91,13.611-13.357c0.351-0.707,0.81-3.48,0.084-2.696"/>
	<path style="fill:none;stroke:#231F20;stroke-miterlimit:10;" d="M482.807,170.429c0.201,1.642,4.84,4.476,6.408,3.892
		c5.038-1.878,6.343,1.43,7.864,4.424c2.953,5.81,5.591,11.781,9.048,19.152c1.02-4.611,1.867-7.888,2.454-11.213
		c1.151-6.518,1.769-13.158,3.353-19.563c1.174-4.75,3.162-5.068,7.144-2.286c0.687,0.48,1.434,0.875,2.494,1.515"/>
	<path style="fill:none;stroke:#231F20;stroke-miterlimit:10;" d="M482.807,170.429c-0.348-2.831,1.26-6.229,2.948-8.796
		c0.552-0.838,4.818-0.645,5.824,0.478c3.884,4.335,7.312,9.119,10.544,13.978c1.381,2.074,1.864,4.744,3.728,7.077
		c0.739-4.782,1.351-9.588,2.26-14.337c0.62-3.234,1.285-6.553,2.605-9.534c1.501-3.391,3.667-6.884,8.373-4.599
		c4.143,2.012,5.128,6.482,2.482,11.653"/>
	<path style="fill:none;stroke:#231F20;stroke-miterlimit:10;" d="M341.004,285.685c0.239,1.944,5.732,5.302,7.589,4.609
		c5.968-2.224,7.513,1.694,9.314,5.239c3.498,6.881,6.621,13.952,10.715,22.683c1.208-5.461,2.212-9.343,2.907-13.28
		c1.363-7.72,2.094-15.584,3.97-23.17c1.391-5.626,3.745-6.002,8.461-2.707c0.812,0.568,1.697,1.035,2.953,1.794"/>
	<path style="fill:none;stroke:#231F20;stroke-miterlimit:10;" d="M341.004,285.685c-0.411-3.353,1.492-7.377,3.493-10.417
		c0.653-0.993,5.706-0.764,6.897,0.565c4.6,5.133,8.659,10.799,12.488,16.554c1.635,2.456,2.207,5.618,4.414,8.381
		c0.876-5.663,1.6-11.354,2.677-16.979c0.734-3.83,1.521-7.761,3.085-11.292c1.778-4.016,4.344-8.153,9.917-5.446
		c4.906,2.383,6.073,7.678,2.939,13.802"/>
	<path style="fill:none;stroke:#231F20;stroke-miterlimit:10;" d="M231.612,374.275c0.017,1.325,3.462,3.987,4.763,3.659
		c4.176-1.055,4.926,1.694,5.875,4.211c1.844,4.885,3.422,9.869,5.53,16.041c1.215-3.582,2.177-6.118,2.935-8.715
		c1.487-5.089,2.559-10.323,4.38-15.285c1.35-3.68,2.961-3.758,5.888-1.195c0.505,0.442,1.065,0.822,1.854,1.425"/>
	<path style="fill:none;stroke:#231F20;stroke-miterlimit:10;" d="M231.612,374.275c-0.029-2.284,1.548-4.85,3.117-6.746
		c0.513-0.62,3.893-0.092,4.596,0.89c2.714,3.791,5.024,7.899,7.174,12.052c0.917,1.771,1.069,3.94,2.349,5.961
		c1.007-3.743,1.914-7.517,3.053-11.219c0.776-2.521,1.596-5.105,2.908-7.364c1.492-2.568,3.522-5.161,7.069-2.93
		c3.123,1.965,3.517,5.61,0.958,9.497"/>
	<path style="fill:none;stroke:#231F20;stroke-miterlimit:10;" d="M273.188,359.691c0.724-2.982,1.786-5.89,2.614-6.615
		c5.347-4.687,23.861-10.338,20.458,6.046c-1.639,7.891-22.686,25.805-5.587,28.17c14.168,1.962,25.947-10.51,35.029-19.872"/>
	<path style="fill:none;stroke:#231F20;stroke-miterlimit:10;" d="M273.188,359.691c-1.188,4.894-1.47,9.989,1.672,5.987
		c3.708-4.723,10.8-7.027,16.708-6.627l-0.179,0.286c-5.796,9.189-13.758,17.344-13.389,28.963
		c0.545,17.099,33.578,9.272,46.438-16.646c0.591-1.193,1.948-4.859,1.265-4.156"/>
	<path style="fill:none;stroke:#231F20;stroke-miterlimit:10;" d="M167.447,220.616c0.181,1.599,4.666,4.401,6.197,3.847
		c4.92-1.778,6.158,1.452,7.609,4.379c2.817,5.68,5.327,11.514,8.62,18.718c1.036-4.476,1.892-7.657,2.494-10.886
		c1.182-6.331,1.846-12.785,3.448-19.001c1.188-4.61,3.125-4.9,6.972-2.156c0.664,0.474,1.386,0.864,2.412,1.498"/>
	<path style="fill:none;stroke:#231F20;stroke-miterlimit:10;" d="M167.447,220.616c-0.311-2.757,1.285-6.048,2.953-8.53
		c0.544-0.81,4.693-0.581,5.661,0.52c3.738,4.254,7.026,8.941,10.125,13.699c1.323,2.031,1.768,4.633,3.559,6.92
		c0.765-4.645,1.405-9.314,2.335-13.926c0.634-3.14,1.313-6.363,2.625-9.25c1.493-3.285,3.633-6.663,8.19-4.394
		c4.011,1.997,4.927,6.355,2.304,11.361"/>
	<path style="fill:none;stroke:#231F20;stroke-miterlimit:10;" d="M462.013,403.096c5.471,3.381,9.626,8.503,13.475,13.368
		c0.084,0.105,0.734,2.095,0.729,2.275c-0.944,1.726-4.794,6.402-5.852,8.062c-0.311,0.485-6.841,9.64-7.271,9.097"/>
	<path style="fill:none;stroke:#231F20;stroke-miterlimit:10;" d="M462.013,403.096c-1.375-0.85-14.188,18.325-12.394,19.435
		c5.471,3.381,9.626,8.503,13.475,13.368"/>
	<path style="fill:none;stroke:#231F20;stroke-miterlimit:10;" d="M485.886,402.738c-0.519-0.595-6.961,8.611-7.271,9.097
		c-1.06,1.662-4.93,6.016-5.875,7.743c-0.007,0.182,0.665,2.495,0.752,2.595c4.194,4.816,9.021,8.845,14.305,12.595"/>
	<path style="fill:none;stroke:#231F20;stroke-miterlimit:10;" d="M485.886,402.738c4.194,4.816,9.021,8.844,14.304,12.595
		c1.298,0.92-4.63,9.564-5.122,10.338c-0.374,0.585-6.252,9.819-7.271,9.097"/>
	<path style="fill:none;stroke:#231F20;stroke-miterlimit:10;" d="M418.237,215.377c4.469,6.408,14.209,15.463,14.203,15.644
		c-0.944,1.726-4.794,6.402-5.852,8.062c-0.311,0.486-6.841,9.64-7.271,9.097"/>
	<path style="fill:none;stroke:#231F20;stroke-miterlimit:10;" d="M418.237,215.377c-1.374-0.85-12.063,13.742-12.736,18.128
		c2.454,3.94,9.969,9.81,13.817,14.675"/>
	<path style="fill:none;stroke:#231F20;stroke-miterlimit:10;" d="M418.647,240.383c-0.519-0.595-6.961,8.611-7.271,9.096
		c-1.06,1.662-4.931,6.016-5.876,7.743c-0.006,0.182,9.773,11.439,15.057,15.19"/>
	<path style="fill:none;stroke:#231F20;stroke-miterlimit:10;" d="M418.647,240.383c4.194,4.816,7.244,10.268,14.304,12.594
		c1.511,0.498-4.63,9.565-5.123,10.339c-0.373,0.584-6.252,9.819-7.271,9.097"/>
	<path style="fill:none;stroke:#231F20;stroke-miterlimit:10;" d="M367.05,354.968"/>
	<path style="fill:none;stroke:#231F20;stroke-miterlimit:10;" d="M95.247,245.636l-1.646-2.777c0,0,6.274-13.269,9.257-17.074
		c5.965-6.892,18.206-19.234,18.206-19.234"/>
	<path style="fill:none;stroke:#231F20;stroke-miterlimit:10;" d="M95.247,245.636c0,0,1.131,1.337,3.291-1.749
		c2.16-3.085,8.126-9.771,16.046-17.074c4.217-7.817,6.48-20.571,6.48-20.571"/>
	<path style="fill:none;stroke:#231F20;stroke-miterlimit:10;" d="M98.744,214.573l3.806-10.286c0,0,9.36,11.829,13.68,15.634
		s9.834,8.705,13.68,14.708c4.217,6.583,3.6,10.8,3.6,13.268c0,2.469,0.103,12.857-4.348,21.628
		c-2.04,4.021-4.807,11.903-11.389,12.109c-6.583,0.205-12.446-2.16-16.663-5.76c-4.217-3.601-8.332-7.715-9.566-11.521
		s0.006-16.271,1.543-21.497c0.656-2.23,1.776-2.416,2.848-1.892"/>
	<path style="fill:none;stroke:#231F20;stroke-miterlimit:10;" d="M98.744,214.573c0,0-3.086,9.463-2.469,11.829
		s7.611,9.668,7.611,9.668s11.314,10.286,14.708,14.091s6.068,9.051,6.068,9.051s-7.817,1.132-14.914-2.88
		c-7.097-4.011-11.005-12.651-11.005-12.651s-1.36-2.006-2.81-2.714"/>
	<path style="fill:none;stroke:#231F20;stroke-miterlimit:10;" d="M604.326,302.465"/>
	<path style="fill:none;stroke:#231F20;stroke-miterlimit:10;" d="M562.556,286.398l-11.963-2.407
		c4.351-1.394,8.7-2.788,13.056-4.167c4.051-1.282,5.675-3.83,5.978-8.207c1.044-15.088-0.185-30.073-1.252-45.083
		c-0.941-13.256-1.779-26.52-2.61-39.784c-0.851-13.57-1.624-27.145-2.475-40.715c-0.083-1.323-0.165-2.797-0.779-3.908
		c-2.262-4.09-1.076-7.929,0.471-11.801c1.119-2.804,2.249-5.604,3.946-8.409c5.975,13.113,11.485,26.189,15.131,39.939
		c-0.206,0.149-0.413,0.298-0.619,0.447"/>
	<path style="fill:none;stroke:#231F20;stroke-miterlimit:10;" d="M562.426,286.441l9.143-2.253
		c3.878-7.713,5.363-16.271,6.204-25.022c1.823-18.978-0.07-37.894-1.307-56.812c-0.939-14.39-2.004-28.771-2.995-43.157
		c-0.052-0.765,0.058-1.541,0.104-2.583c2.6,2.214,4.91,4.183,7.222,6.151c0.214-0.154,0.428-0.309,0.642-0.462"/>
	<path style="fill:none;stroke:#231F20;stroke-miterlimit:10;" d="M633.302,299.649c0.309-1.125,0.341-5.478-1.165-6.356
		c-9.749-5.686-21.925-6.45-32.864-8.013c-7.637-1.092-15.369-0.887-23.061-1.003c-1.55-0.023-3.097-0.057-4.644-0.089
		l-20.976-0.197c-7.594-0.023-15.825-0.768-23.073,1.449c-8.785,2.688-18.131,8.564-19.19,18.536
		c-1.051,9.896,4.553,20.122,9.403,28.342c2.789,4.727,6.303,8.203,10.414,11.599l-0.004,0.004
		c0.516,1.026,10.305,10.894,10.855,11.758c1.621,2.546,3.253,4.542,4.526,6.434"/>
	<path style="fill:none;stroke:#231F20;stroke-miterlimit:10;" d="M565.933,367.393c-5.438,13.977-15.119,25.552-25.999,27.382
		c-5.295,0.891-10.855,0.676-16.213,0.766c-2.215,0.037-4.444,0.062-6.673,0.023l-10.654-0.943
		c-8.702-1.605-16.619-5.706-22.415-12.535c-13.837-16.304-11.987-37.839-12.279-57.894c-0.14-9.589-0.175-19.177-0.15-28.765
		c-0.023,0.001-0.047,0.002-0.07,0.003c0.034-2.068,0.065-4.138,0.099-6.206c0.031-6.03,0.078-12.061,0.147-18.091
		c0.04-0.01,0.08-0.021,0.119-0.03c0.173-12.714,0.3-25.428,0.293-38.144c0-1.257,0.129-2.533,0.333-3.813
		c-1.217-0.798-2.275-1.819-3.067-3.142c-2.469-4.123-2.738-8.967-2.766-13.658c-0.027-4.587,1.634-9.463,2.95-13.797
		c0.357-1.175,0.723-2.362,1.136-3.532c0.35-0.992,1.181-3.337,2.336-3.67"/>
	<path style="fill:none;stroke:#231F20;stroke-miterlimit:10;" d="M632.859,303.93c0,0-2.805,10.036-6.774,11.452
		c-4.921,1.756-10.329,0.825-15.48,1.54c-5.592,0.775-11.154,1.808-16.617,3.239c-10.062,2.637-19.213,6.549-27.933,12.247
		c-8.633,5.643-17.591,11.56-25.897,18.191l-2.629,2.143c-6.594,5.49-23.978,22.829-20.48,42.821
		c1.03,5.891,7.623,7.625,12.054,10.203c12.705,7.394,26.501,9.357,40.788,6.097c6.344-1.447,13.232-3.692,18.2-8.086l0.082-0.075
		c-0.306-0.844-0.673-1.647-1.115-2.369c-6.182-10.082-23.746-14.013-25.549-26.629l1.868-9.922"/>
	<path style="fill:none;stroke:#231F20;stroke-miterlimit:10;" d="M632.474,305.188c0,0-5.677-5.223-11.126-5.677
		s-18.006,3.089-18.006,3.089c-9.298,0.886-16.678,3.1-24.789,6.536c-8.794,3.726-17.612,8.56-25.248,14.192
		c-6.567,4.845-12.932,9.988-18.759,15.712l-5.418,5.685c-2.758,3.1-5.351,6.357-7.723,9.819
		c-3.567,5.205-6.366,10.749-8.624,16.519h-0.007l-0.016,0.057c-0.173,0.443-6.365,23.5-6.365,23.5
		c-1.127,7.896-0.558,15.79,4.273,22.554c8.552,11.972,25.544,18.642,39.887,18.391c8.966-0.157,18.234-2.058,26.224-6.204
		c9.823-5.098,13.706-14.459,16.278-24.507c0.55-2.147,1.043-4.325,1.518-6.5c1.2-5.498,1.667-11.19-0.279-16.574
		c-1.528-4.229-4.875-7.343-8.327-10.054c-6.673-5.239-17.978-9.359-18.258-19.153l-4.224,12.155"/>
	<path style="fill:none;stroke:#231F20;stroke-miterlimit:10;" d="M565.933,367.284c0,0,2.175-16.315,1.849-16.37
		c-0.326-0.054-1.943,3.742-1.858,3.511c-2.742,7.482-7.812,13.842-15.29,16.939c-4.016,1.663-8.292,1.78-12.567,1.871
		c-6.017,0.129-12.021,0.387-18.037,0.115c-0.655-0.029-1.306-0.07-1.953-0.121l-5.833-0.779c-6.808-1.307-13.08-4.036-18.565-8.769
		c-6.785-5.854-11.179-14.138-13.407-22.716c-2.764-10.639-1.87-22.45-2.072-33.347c-0.234-12.685-0.292-25.371-0.255-38.057
		c0-0.045,0.001-0.089,0.001-0.134c0.092-5.269,0.184-10.537,0.269-15.806c0.118-7.406,0.205-14.812,0.266-22.217
		c1.216,0.238,2.44,0.392,3.612,0.501c1.593,0.147,3.86-9.756,4.131-10.742c0.167-0.611,2.954-11.251,1.921-11.347
		c-4.648-0.431-9.314-1.5-12.312-5.353c-2.789-3.583-2.745-8.956-2.771-13.258"/>
	<path style="fill:none;stroke:#231F20;stroke-miterlimit:10;" d="M633.45,299.797l-0.738,5.313l-28.922-2.629
		c0,0-34.984,1.152-43.401,1.3c-8.417,0.146-36.15,1.082-36.15,1.082s-6.129,0.955-7.792,7.022
		c-1.663,6.068,5.288,13.79,5.288,13.79s7.122,4.915,9.967,9.141c2.845,4.225,7.984,14.502,9.226,17.882
		c1.241,3.379,2.642,9.693,2.642,9.693"/>
	<path style="fill:none;stroke:#231F20;stroke-miterlimit:10;" d="M632.859,303.93"/>
	<path style="fill:none;stroke:#231F20;stroke-miterlimit:10;" d="M423.566,269.582c-9.097,6.688-16.61,22.488-7.488,32.054
		c2.396,2.394,5.158,4.144,8.104,5.555l0,0c0.009,0.004,0.02,0.01,0.028,0.014c0.569,0.272,1.143,0.536,1.725,0.785l-0.031,0.048
		c7.977,3.859,31.242,14.65,34.022,19.642c4.205,7.55,4.412,16.113,3.044,24.479c-1.064,6.507-5.004,18.478-5.004,18.478
		l-1.887-0.189"/>
	<path style="fill:none;stroke:#231F20;stroke-miterlimit:10;" d="M457.006,368.399c-0.703-0.287-2.03,0.602-2.03,0.602
		c-0.545,0.624-1.114,1.229-1.707,1.81c-3.735,3.666-8.729,5.002-13.836,4.726c-9.345-0.505-17.827-7.215-23.106-14.5
		c-2.694-3.718-4.473-8.042-5.35-12.532c-0.433-2.218-0.489-4.485-0.429-6.735c0.014-0.548,0.056-1.094,0.112-1.637
		c2.236-3.648,4.968-7.048,7.922-10.294c0,0,26.635-13.959,32.386-20.654c6.3-7.334,9.821-17.201,11.251-26.844
		c1.291-13.207-3.23-25.595-8.437-37.541c-1.738-3.988-3.119-9.145-5.876-12.561c-3.997-4.953-11.052-8.573-16.147-12.331"/>
	<path style="fill:none;stroke:#231F20;stroke-miterlimit:10;" d="M457.006,368.399c0.703,0.288,0.819,2.579,0.819,2.579
		c-2.113,5.712-4.918,11.742-8.489,16.722c-5.516,7.691-14.394,11.279-23.59,8.109c-8.691-2.996-16.466-9.695-20.37-18.091
		c-4.152-8.93-3.83-18.126-1.137-27.447c2.265-7.836,5.176-15.677,9.032-22.969c0,0,33.806-42.287,38.842-56.172
		c6.806-18.763-6.777-38.705-20.354-51.223"/>
	<path style="fill:none;stroke:#231F20;stroke-miterlimit:10;" d="M423.566,269.582c-11.48,6.5-14.194,15.332-17.957,27.896
		c-2.416,8.065-4.332,16.739,1.005,24.052c1.11,1.522,2.46,2.802,3.941,3.931l-0.016,0.021c0.026,0.011,0.062,0.025,0.09,0.037
		c0.847,0.64,1.725,1.245,2.654,1.785c0,0,12.905,5.112,15.447,5.919c8.016,2.545,15.462,6.047,20.88,12.698
		c5.305,6.513,5.364,23.081,5.364,23.081l1.104,1.402"/>
	<path style="fill:none;stroke:#231F20;stroke-miterlimit:10;" d="M457.825,370.979"/>
	<path style="fill:none;stroke:#231F20;stroke-miterlimit:10;" d="M223.972,111.265c-1.134,1.053-2.759,4.277-2.842,4.524
		c-1.626,4.812-3.38,10.117-3.744,15.219c-0.227,3.179,0.129,6.255,1.052,9.056c3.595,10.907,4.715,21.777,5.137,32.853l0.172,6.058
		c0.053,2.591,0.086,5.194,0.12,7.814c0.206,16.096,0.411,32.192,0.617,48.289c0.115,9.006,0.317,18.013,0.128,27.011
		c-0.116,5.513-0.038,12.734-4.246,16.958c-4.579,4.596-16.732,8.296-19.816,8.796s-19.584,0.77-20.783,0.698
		c-3.839-0.229-7.862-0.477-11.441-1.976c-3.506-1.469-3.864-5.224-4.034-8.544c-0.023-0.463-0.034-0.925-0.045-1.387
		c0.368-0.265,0.751-0.514,1.166-0.729c2.866-1.498,6.062,1.041,8.121,2.771c1.477,1.241,3.224,2.9,4.583,4.282l9.717-0.877"/>
	<path style="fill:none;stroke:#231F20;stroke-miterlimit:10;" d="M187.111,278.604l10.039,0.548
		c0.856,2.99,1.158,6.045,1.077,9.123c-0.552,6.067-3.56,18.357-4.893,21.991c-3.569,10.462-9.055,19.891-15.363,28.972
		c-8.31,11.962-23.654,29.959-39.823,29.289c-9.958-0.413-19.617-5.435-25.916-13.149c-7.576-9.279-8.837-21.27-7.729-32.85
		c0.86-8.982,2.665-17.85,4.954-26.569c1.259-4.798,3.11-11.646,4.794-16.292l1.136-0.592"/>
	<path style="fill:none;stroke:#231F20;stroke-miterlimit:10;" d="M187.182,278.604l-9.409,4.028
		c1.63,1.657,3.194,3.384,4.738,5.101c0.292,0.325,3.039,6.109,3.623,8.692l1.5,14c-2.243,3.503-4.175,7.083-6.537,10.347
		c-7.091,9.798-16.35,19.849-28.103,23.846c-12.658,4.304-26.889-1.512-34.964-11.737c-7.676-9.719-8.647-23.107-6.243-34.861
		c1.12-5.477,3.279-12.637,4.596-18.068l-1.166-1.025"/>
	<path style="fill:none;stroke:#231F20;stroke-miterlimit:10;" d="M146.326,226.62c-11.685-2.186-13.848-6.893-8.155-16.416
		c2.636-4.409,5.941-7.897,10.961-9.744c24.831-9.136,49.635-18.345,74.443-27.543l5.615-2.082l0,0
		c3.414-1.266,6.827-2.532,10.241-3.797c0.394-0.146,0.86-0.202,1.811-0.384"/>
	<path style="fill:none;stroke:#231F20;stroke-miterlimit:10;" d="M146.326,226.62c0.219,0.041,0.506,0.215,0.638,0.131
		c0.662-0.419,1.622-0.772,1.86-1.388c1.143-2.941-0.541-5.495-2.98-7.121c-0.635-0.423-7.439-3.576-7.375-3.636
		c1.397-1.311,2.611-2.943,4.229-3.866c3.271-1.865,6.665-3.602,10.179-4.943c23.388-8.924,54.215-20.594,77.795-29.41
		c1.388-0.519,2.775-1.04,4.165-1.556c3.937-1.462,5.434-4.06,6.404-8.178"/>
	<path style="fill:none;stroke:#231F20;stroke-miterlimit:10;" d="M392.853,232.607c-1.287,4.214-3.323,10.97-4.869,11.665
		c-1.531,0.688-5.346-0.247-7.096-0.23c-13.566,0.128-27.566,6.609-39.292,12.958c-12.083,6.542-23.16,14.905-32.788,24.707
		c-0.974,0.991-5.059,5.403-6.651,7.233c-1.592,1.83-4.452,4.521-4.452,4.521c-1.817,1.897-3.612,3.818-5.412,5.733
		c-11.647,12.396-27.793,29.829-46.706,24.781c-8.299-2.215-16.326-7.142-19.638-15.392c-2.981-7.422-2.604-18.529-1.898-26.424
		l2.843-6.633"/>
	<path style="fill:none;stroke:#231F20;stroke-miterlimit:10;" d="M393.513,230.097c-0.476,1.803-1.049,3.879-1.649,5.847
		l-26.417,1.822c0,0-33.25,2.733-54.372-0.186c-10.776-1.489-22.176-2.617-32.991-0.779c-27.051,4.598,21.77,50.278,23.749,52.332
		c1.979,2.055,4.148,8.204,5.654,11.831c1.92,4.625,3.671,9.396,4.167,14.41"/>
	<path style="fill:none;stroke:#231F20;stroke-miterlimit:10;" d="M393.513,230.097c0.745-2.826,1.25-4.978,1.25-4.978
		c-12.137-0.91-35.91,1.665-43.645,1.33c-17.434-0.754-34.587-4.24-51.731-7.246c-13.457-2.358-29.479-7.561-37.778,7.018
		c-4.686,8.232-0.825,22.998,2.444,30.458c3.761,8.585,8.331,16.16,15.327,22.426c2.94,2.634,15.393,12.573,18.864,15.254
		c4.121,4.439,7.373,11.271,8.84,14.302c0.991,2.047,3.292,6.023,3.292,6.023s0.742,0.879,1.279,0.689"/>
	<path style="fill:none;stroke:#231F20;stroke-miterlimit:10;" d="M392.635,232.752c-3.521-0.524-12.5-0.35-19.59,0.479
		c-18.505,1.993-45.784,18.18-52.748,23.168c-9.388,6.726-17.032,15.387-25.021,23.636l-6.53,6.66
		c-3.747,3.512-7.679,6.81-11.993,9.674c-7.954,5.279-15.956,7.872-25.407,5.663c-17.226-4.026-20.977-18.987-20.925-34.669
		l-3.724,8.354"/>
	<path style="fill:none;stroke:#231F20;stroke-miterlimit:10;" d="M223.767,111.056c0.396,2.836,0.796,5.674,1.189,8.515
		c1.948,4.6,5.968,8.224,10.858,9.918c1.833,0.636-2.42,21.186-2.771,23.514l-4.58-3.562c0,5.165,0.588,10.321,0.647,15.514
		c0.022,1.962,0.054,3.92,0.08,5.88l0.083,6.076c0.478,31.114,1.354,62.028,1.25,93.211l-4.765,15.325
		c-1.774,5.8-5.236,11.13-8.961,15.388c-5.813,6.644-12.914,7.508-18.914,8.841c-6,1.334-23.13,1.221-29.094,0.515
		c-3.874-0.459-8.54-1.181-9.985-5.387c-2.537-7.383-0.801-17.015,0.734-24.4c1.456-7.004,3.338-14.431,6.601-20.839
		c1.234-2.422,3.945-6.486,7.205-6.153c4.586,0.469,8.376,4.949,11.379,8.088c3.555,3.715,7.583,7.585,10.115,12.107
		c1.017,1.816,1.773,3.669,2.311,5.546l-9.409,2.93"/>
</g>
<g id="Layer_1">
</g>
</svg>
