<?xml version="1.0" encoding="iso-8859-1"?>
<!-- Generator: Adobe Illustrator 16.0.0, SVG Export Plug-In . SVG Version: 6.00 Build 0)  -->
<!DOCTYPE svg PUBLIC "-//W3C//DTD SVG 1.1//EN" "http://www.w3.org/Graphics/SVG/1.1/DTD/svg11.dtd">
<svg version="1.1" xmlns="http://www.w3.org/2000/svg" xmlns:xlink="http://www.w3.org/1999/xlink" x="0px" y="0px"
	 width="606.778px" height="464.789px" viewBox="0 0 606.778 464.789" style="enable-background:new 0 0 606.778 464.789;"
	 xml:space="preserve">
<g id="lifeisgood">
	<path id="cal_x5F_027-2L" style="fill:none;stroke:#231F20;stroke-miterlimit:10;" d="M22.209,117.797
		c-1.428-0.44-7.917,21.514-6.052,22.088c5.684,1.751,10.644,5.538,15.269,9.161"/>
	<path id="cal_x5F_027-2R" style="fill:none;stroke:#231F20;stroke-miterlimit:10;" d="M22.209,117.797
		c5.684,1.751,10.644,5.537,15.268,9.161c0.101,0.079,1.176,1.813,1.216,1.989c-0.399,1.918-2.621,7.471-3.138,9.357
		c-0.151,0.552-3.614,11.146-4.13,10.742"/>
	<path id="cal_x5F_027-1L" style="fill:none;stroke:#231F20;stroke-miterlimit:10;" d="M43.205,110.907
		c-0.607-0.43-3.979,10.19-4.13,10.741c-0.517,1.889-2.839,7.137-3.239,9.058c0.04,0.176,1.216,2.217,1.318,2.29
		c4.918,3.481,10.195,6.031,15.806,8.189"/>
	<path id="cal_x5F_027-1R" style="fill:none;stroke:#231F20;stroke-miterlimit:10;" d="M43.205,110.907
		c4.918,3.481,10.194,6.031,15.806,8.189c1.378,0.53-1.68,10.468-1.921,11.347c-0.183,0.665-3.049,11.157-4.13,10.742"/>
	<path id="cal_x5F_026-2L" style="fill:none;stroke:#231F20;stroke-miterlimit:10;" d="M23.235,194.842l-1.646-2.777
		c0,0,6.274-13.269,9.257-17.074c5.965-6.892,18.206-19.234,18.206-19.234"/>
	<path id="cal_x5F_026-2R" style="fill:none;stroke:#231F20;stroke-miterlimit:10;" d="M23.235,194.842c0,0,1.131,1.337,3.291-1.749
		c2.16-3.085,8.126-9.771,16.046-17.074c4.217-7.817,6.48-20.571,6.48-20.571"/>
	<path id="cal_x5F_026-1L" style="fill:none;stroke:#231F20;stroke-miterlimit:10;" d="M26.732,163.779
		c0,0-3.086,9.463-2.469,11.829s7.611,9.668,7.611,9.668s11.314,10.286,14.708,14.091s6.068,9.051,6.068,9.051
		s-7.817,1.132-14.914-2.88c-7.097-4.011-11.005-12.651-11.005-12.651s-1.36-2.006-2.81-2.714"/>
	<path id="cal_x5F_026-1R" style="fill:none;stroke:#231F20;stroke-miterlimit:10;" d="M26.732,163.779l3.806-10.286
		c0,0,9.36,11.829,13.68,15.634s9.834,8.705,13.68,14.708c4.217,6.583,3.6,10.8,3.6,13.268c0,2.469,0.103,12.857-4.348,21.628
		c-2.04,4.021-4.807,11.903-11.389,12.109c-6.583,0.205-12.446-2.16-16.663-5.76c-4.217-3.601-8.332-7.715-9.566-11.521
		s0.006-16.271,1.543-21.497c0.656-2.23,1.776-2.416,2.848-1.892"/>
	<path id="cal_x5F_025L" style="fill:none;stroke:#231F20;stroke-miterlimit:10;" d="M201.177,308.897
		c0.724-2.982,1.786-5.89,2.614-6.615c5.347-4.687,23.861-10.338,20.458,6.046c-1.639,7.891-22.686,25.805-5.587,28.17
		c14.168,1.962,25.947-10.51,35.029-19.872"/>
	<path id="cal_x5F_025R" style="fill:none;stroke:#231F20;stroke-miterlimit:10;" d="M201.177,308.897
		c-1.188,4.894-1.47,9.989,1.672,5.987c3.708-4.723,10.8-7.027,16.708-6.627l-0.179,0.286c-5.796,9.189-13.758,17.344-13.389,28.963
		c0.545,17.099,33.578,9.272,46.438-16.646c0.591-1.193,1.948-4.859,1.265-4.156"/>
	<path id="cal_x5F_024L" style="fill:none;stroke:#231F20;stroke-miterlimit:10;" d="M159.601,323.481
		c-0.029-2.284,1.548-4.85,3.117-6.746c0.513-0.62,3.893-0.092,4.596,0.89c2.714,3.791,5.024,7.899,7.174,12.052
		c0.917,1.771,1.069,3.94,2.349,5.961c1.007-3.743,1.914-7.517,3.053-11.219c0.776-2.521,1.596-5.105,2.908-7.364
		c1.492-2.568,3.522-5.161,7.069-2.93c3.123,1.965,3.517,5.61,0.958,9.497"/>
	<path id="cal_x5F_024R" style="fill:none;stroke:#231F20;stroke-miterlimit:10;" d="M159.601,323.481
		c0.017,1.325,3.462,3.987,4.763,3.659c4.176-1.055,4.926,1.694,5.875,4.211c1.844,4.885,3.422,9.869,5.53,16.041
		c1.215-3.582,2.177-6.118,2.935-8.715c1.487-5.089,2.559-10.323,4.38-15.285c1.35-3.68,2.961-3.758,5.888-1.195
		c0.505,0.442,1.065,0.822,1.854,1.425"/>
	<path id="cal_x5F_023L" style="fill:none;stroke:#231F20;stroke-miterlimit:10;" d="M74.314,175.826
		c0.219,0.041,0.506,0.215,0.638,0.131c0.662-0.419,1.622-0.772,1.86-1.388c1.143-2.941-0.541-5.495-2.98-7.121
		c-0.635-0.423-7.439-3.576-7.375-3.636c1.397-1.311,2.611-2.943,4.229-3.866c3.271-1.865,6.665-3.602,10.179-4.943
		c23.388-8.924,54.215-20.594,77.795-29.41c1.388-0.519,2.775-1.04,4.165-1.556c3.937-1.462,5.434-4.06,6.404-8.178"/>
	<path id="cal_x5F_023R" style="fill:none;stroke:#231F20;stroke-miterlimit:10;" d="M74.314,175.826
		c-11.685-2.186-13.848-6.893-8.155-16.416c2.636-4.409,5.941-7.897,10.961-9.744c24.831-9.136,49.635-18.345,74.443-27.543
		l5.615-2.082l0,0c3.414-1.266,6.827-2.532,10.241-3.797c0.394-0.146,0.86-0.202,1.811-0.384"/>
	<path id="cal_x5F_022L" style="fill:none;stroke:#231F20;stroke-miterlimit:10;" d="M60.824,345.893
		c0.512-6.78,3.513-9.981,9.221-12.114c65.626-24.52,131.158-49.294,196.719-73.989c2.103-0.792,4.252-1.46,6.945-2.378"/>
	<path id="cal_x5F_022R" style="fill:none;stroke:#231F20;stroke-miterlimit:10;" d="M60.824,345.893
		c2.253-0.751,3.864-1.211,5.418-1.817c37.742-14.75,75.441-29.61,113.228-44.246c29.124-11.281,58.345-22.313,87.552-33.378
		c3.93-1.488,7.075-3.26,6.687-9.04"/>
	<path id="cal_x5F_021L" style="fill:none;stroke:#231F20;stroke-miterlimit:10;" d="M95.436,169.822
		c-0.311-2.757,1.285-6.048,2.953-8.53c0.544-0.81,4.693-0.581,5.661,0.52c3.738,4.254,7.026,8.941,10.125,13.699
		c1.323,2.031,1.768,4.633,3.559,6.92c0.765-4.645,1.405-9.314,2.335-13.926c0.634-3.14,1.313-6.363,2.625-9.25
		c1.493-3.285,3.633-6.663,8.19-4.394c4.011,1.997,4.927,6.355,2.304,11.361"/>
	<path id="cal_x5F_021R" style="fill:none;stroke:#231F20;stroke-miterlimit:10;" d="M95.436,169.822
		c0.181,1.599,4.666,4.401,6.197,3.847c4.92-1.778,6.158,1.452,7.609,4.379c2.817,5.68,5.327,11.514,8.62,18.718
		c1.036-4.476,1.892-7.657,2.494-10.886c1.182-6.331,1.846-12.785,3.448-19.001c1.188-4.61,3.125-4.9,6.972-2.156
		c0.664,0.474,1.386,0.864,2.412,1.498"/>
	<path id="cal_x5F_020L" style="fill:none;stroke:#231F20;stroke-miterlimit:10;" d="M180.873,204.419
		c-1.108,3.029-1.834,5.357-3.18,7.155c-2.66,3.55-6.35,0.435-7.263-2.857c-2.08-7.495,0.41-14.925,2.113-22.212
		c0.628-2.678,1.43-4.971-0.16-6.905"/>
	<path id="cal_x5F_020R" style="fill:none;stroke:#231F20;stroke-miterlimit:10;" d="M180.873,204.419l0.547,1.067
		c2.1,5.84-0.371,18.804-8.425,17.646c-14.764-2.123-3.284-35.405-0.619-43.467"/>
	<path id="cal_x5F_019L" style="fill:none;stroke:#231F20;stroke-miterlimit:10;" d="M173.871,131.176
		c0.489-2.235,3.007-1.412,4.534-1.78c5.14-1.267,11.241-2.586,12.271-2.891c3.815-1.193,7.671-2.227,11.279-4.056
		c-7.205-1.637-14.875-4.242-22.567-3.051c-2.013,0.304-1.776,3.449-3.83,3.957"/>
	<path id="cal_x5F_019R" style="fill:none;stroke:#231F20;stroke-miterlimit:10;" d="M173.871,131.176
		c7.13,0.958,14.05,3.247,21.539,2.659c4.397-0.372,7.883-4.226,10.09-7.562c3.176-4.808,9.252-8.402,8.274-14.914
		c-0.138-0.864-0.99-1.475-1.724-1.688c-3.86-1.137-12.473-2.319-17.07-2.972c-1.25-0.204-4.736-0.87-7.06-0.875
		c-4.908-0.006-6.587,5.464-8.812,8.722c-1.812,2.62-4.734,5.227-3.549,8.811"/>
	<path id="cal_x5F_018-2L" style="fill:none;stroke:#231F20;stroke-miterlimit:10;" d="M249.617,99.406l0.632,4.024
		c0.805,0,3.162,5.556,0.378,10.314l-2.417,5.181c-14.147,16.575-20.546,21.296-37.316,31.298"/>
	<path id="cal_x5F_018-2R" style="fill:none;stroke:#231F20;stroke-miterlimit:10;" d="M249.617,99.406l4.096-2.243
		c0,0,1.169,2.003,1.169,2.933c0,1.542,1.112,8.704-2.159,15.743l-2.226,4.513c-15.855,23.008-20.028,23.799-39.693,30.096"/>
	<path id="cal_x5F_018-1L" style="fill:none;stroke:#231F20;stroke-miterlimit:10;" d="M258.891,130.844
		c0,0.438-0.552,3.208-2.035,3.208c-1.481,0-2.345-1.665-2.345-3.515s1.542-4.387,1.359-8.336c-0.115-2.548-1.438-4.477-2.551-5.725
		v0l-0.003-0.003c-0.208-0.233-0.41-0.45-0.593-0.634l-0.017,0.034c-1.888-1.874-7.58-7.676-7.58-9.479
		c0-2.157,4.32-2.963,5.123-2.963l2.099-3.341"/>
	<path id="cal_x5F_018-1R" style="fill:none;stroke:#231F20;stroke-miterlimit:10;" d="M258.891,130.844
		c0,0,0.558,0.056,0.496,1.417c-0.061,1.362-1.111,5.625-2.405,5.625c-1.299,0-4.076-1.729-4.076-6.547
		c0-4.67,2.644-5.405-1.969-10.503c-0.6-0.554-7.377-6.817-7.912-7.341c-0.555-0.557-1.294-2.413-1.294-3.771
		c0-4.137,5.68-13.393,10.187-13.393c0.76,0,1.383,0.35,1.859,0.867l-1.429,2.89"/>
	<path id="cal_x5F_017-2L" style="fill:none;stroke:#231F20;stroke-miterlimit:10;" d="M288.922,305.979l1.714-2.955
		c-4.5-1.5-5.129-2.856-5.188-5.327c0.116-0.897,1.511-2.867,3.37-4.269c1.919-1.807,3.668-1.389,4.482-1.273
		c1.629,0.229,2.142,1.615,2.682,4.536c0.472,2.56,0.064,5.24-0.693,7.732l-3.826,6.595c-2.962,3.326-7.15,6.476-12.503,9.043
		c-4.014,1.929-7.624,3.912-11.634,5.841c-4.54,2.686-7.211,6.88-7.846,11.365c-0.69,4.891,2.693,7.448,10.029,8.485
		c5.708,0.809,12.807,0.562,20.551-1.251c5.529-0.885,9.429-1.998,12.103-3.281c4.946-2.626,7.876-4.422,7.876-4.422"/>
	<path id="cal_x5F_017-2R" style="fill:none;stroke:#231F20;stroke-miterlimit:10;" d="M288.922,305.979l-1.892,3.251
		c-4.315-1.95-6.393-3.992-5.771-8.385c0.46-3.262,2.167-6.636,4.779-10.422c6.125-0.75,8.62,0.174,15.533,4.978
		c-0.634,4.483-1.506,7.685-2.606,9.608l-3.948,7.342c-4.126,5.652-8.486,10.026-12.558,12.362
		c-3.664,2.395-8.96,4.555-15.942,6.896c-1.743,0.584-2.674,1.284-2.789,2.1c-0.116,0.816,0.641,1.34,1.806,1.918
		c3.497,1.741,9.608,2.606,17.469,2.886c3.318,0.053,11.704-0.427,24.338-1.551c1.687-0.176,2.56-0.468,2.502-0.062"/>
	<path id="cal_x5F_017-1L" style="fill:none;stroke:#231F20;stroke-miterlimit:10;" d="M286.37,282.777
		c-0.76,1.821-0.887,4.29-0.295,7.522c5.262-0.233,8.319-0.277,15.498,5.102c4.602,2.729,7.248,6.206,8.867,10.815
		c0.26,0.751,0.177,1.686,0.119,2.095c-0.409-0.058-0.409-0.058-0.815-0.117c-5.453-0.271-17.223-4.512-19.046-5.17l-1.478,2.778"/>
	<path id="cal_x5F_017-1R" style="fill:none;stroke:#231F20;stroke-miterlimit:10;" d="M286.37,282.777
		c0.444-1.064,1.104-1.907,1.962-2.554c1.858-1.399,3.607-1.984,5.645-1.695c2.036,0.288,3.961,1.392,6.641,3.017
		c8.279,6.16,13.597,13.109,15.345,20.881c-0.025,0.524,0.291,0.87,0.177,1.686c-0.348,2.446-1.55,5.197-3.655,8.214
		c-2.109,3.023-3.01,2.552-4.715,2.892c-2.531,0.28-12.404-1.671-20.68-5.927l2.128-3.487"/>
	<path id="cal_x5F_016L" style="fill:none;stroke:#231F20;stroke-miterlimit:10;" d="M268.993,234.891
		c-0.411-3.353,1.492-7.377,3.493-10.417c0.653-0.993,5.706-0.764,6.897,0.565c4.6,5.133,8.659,10.799,12.488,16.554
		c1.635,2.456,2.207,5.618,4.414,8.381c0.876-5.663,1.6-11.354,2.677-16.979c0.734-3.83,1.521-7.761,3.085-11.292
		c1.778-4.016,4.344-8.153,9.917-5.446c4.906,2.383,6.073,7.678,2.939,13.802"/>
	<path id="cal_x5F_016R" style="fill:none;stroke:#231F20;stroke-miterlimit:10;" d="M268.993,234.891
		c0.239,1.944,5.732,5.302,7.589,4.609c5.968-2.224,7.513,1.694,9.314,5.239c3.497,6.881,6.621,13.952,10.715,22.683
		c1.208-5.461,2.212-9.343,2.907-13.28c1.363-7.72,2.094-15.584,3.97-23.17c1.391-5.626,3.746-6.002,8.461-2.707
		c0.812,0.568,1.697,1.035,2.953,1.794"/>
	<path id="cal_x5F_015L" style="fill:none;stroke:#231F20;stroke-miterlimit:10;" d="M268.937,132.501
		c-0.347-2.831,1.26-6.229,2.949-8.796c0.552-0.838,4.818-0.645,5.824,0.478c3.884,4.334,7.312,9.119,10.544,13.978
		c1.38,2.074,1.864,4.744,3.727,7.077c0.739-4.782,1.351-9.587,2.26-14.336c0.62-3.234,1.285-6.553,2.605-9.534
		c1.501-3.391,3.667-6.884,8.374-4.599c4.143,2.012,5.128,6.482,2.482,11.653"/>
	<path id="cal_x5F_015R" style="fill:none;stroke:#231F20;stroke-miterlimit:10;" d="M268.937,132.501
		c0.202,1.642,4.84,4.476,6.408,3.892c5.039-1.877,6.343,1.431,7.865,4.424c2.953,5.81,5.59,11.781,9.047,19.152
		c1.02-4.611,1.867-7.889,2.454-11.213c1.151-6.518,1.769-13.159,3.353-19.564c1.174-4.75,3.162-5.067,7.144-2.286
		c0.687,0.48,1.434,0.875,2.494,1.515"/>
	<path id="cal_x5F_014-4L" style="fill:none;stroke:#231F20;stroke-miterlimit:10;" d="M321.502,179.303
		c0.745-2.826,1.25-4.978,1.25-4.978c-12.137-0.91-35.91,1.665-43.646,1.33c-17.434-0.754-34.587-4.24-51.731-7.246
		c-13.457-2.358-29.479-7.561-37.778,7.018c-4.686,8.232-0.825,22.998,2.444,30.458c3.761,8.585,8.331,16.16,15.327,22.426
		c2.94,2.634,15.393,12.573,18.864,15.254c4.121,4.439,7.373,11.271,8.84,14.302c0.991,2.047,3.292,6.023,3.292,6.023
		s0.742,0.879,1.279,0.689"/>
	<path id="cal_x5F_014-4R" style="fill:none;stroke:#231F20;stroke-miterlimit:10;" d="M321.502,179.303
		c-0.476,1.803-1.049,3.879-1.649,5.847l-26.417,1.822c0,0-33.25,2.733-54.372-0.186c-10.776-1.489-22.176-2.617-32.991-0.779
		c-27.051,4.598,21.77,50.278,23.749,52.332c1.979,2.055,4.148,8.204,5.654,11.831c1.92,4.625,3.671,9.396,4.167,14.41"/>
	<path id="cal_x5F_014-3L" style="fill:none;stroke:#231F20;stroke-miterlimit:10;" d="M154.687,224.924l3.724-8.354
		c-0.052,15.682,3.699,30.643,20.925,34.669c9.451,2.209,17.453-0.384,25.407-5.663c4.314-2.864,8.246-6.162,11.993-9.674l6.53-6.66
		c7.989-8.249,15.632-16.91,25.021-23.636c6.964-4.989,34.243-21.176,52.748-23.168c7.09-0.829,16.251-1.089,19.772-0.565"/>
	<path id="cal_x5F_014-3R" style="fill:none;stroke:#231F20;stroke-miterlimit:10;" d="M154.882,224.734l-2.843,6.633
		c-0.706,7.895-1.083,19.002,1.898,26.424c3.312,8.25,11.339,13.177,19.638,15.392c18.913,5.048,35.059-12.386,46.706-24.781
		c1.8-1.915,3.595-3.836,5.412-5.733c0,0,2.86-2.69,4.452-4.521c1.593-1.83,5.678-6.242,6.651-7.233
		c9.628-9.802,20.705-18.165,32.788-24.707c11.726-6.349,25.726-12.83,39.292-12.958c1.75-0.017,5.564,0.918,7.096,0.23
		c1.546-0.695,3.545-7.391,4.833-11.605"/>
	<path id="cal_x5F_014-2L" style="fill:none;stroke:#231F20;stroke-miterlimit:10;" d="M115.171,227.811l-9.409,4.028
		c1.63,1.657,3.194,3.384,4.738,5.101c0.292,0.325,3.039,6.109,3.623,8.692l1.5,14c-2.243,3.503-4.175,7.083-6.537,10.347
		c-7.091,9.798-16.35,19.849-28.103,23.846c-12.658,4.304-26.889-1.512-34.964-11.737c-7.676-9.719-8.647-23.107-6.243-34.861
		c1.12-5.477,3.279-12.637,4.596-18.068l-1.166-1.025"/>
	<path id="cal_x5F_014-2R" style="fill:none;stroke:#231F20;stroke-miterlimit:10;" d="M115.1,227.811l10.039,0.548
		c0.856,2.99,1.158,6.045,1.077,9.123c-0.552,6.067-3.56,18.357-4.893,21.991c-3.569,10.462-9.055,19.891-15.363,28.972
		c-8.31,11.962-23.654,29.959-39.823,29.289c-9.958-0.413-19.617-5.435-25.916-13.149c-7.576-9.279-8.837-21.27-7.729-32.85
		c0.86-8.982,2.665-17.85,4.954-26.569c1.259-4.798,3.11-11.646,4.794-16.292l1.136-0.592"/>
	<path id="cal_x5F_014-1L" style="fill:none;stroke:#231F20;stroke-miterlimit:10;" d="M151.96,60.471
		c-1.134,1.053-2.759,4.277-2.842,4.524c-1.626,4.812-3.38,10.117-3.744,15.219c-0.227,3.179,0.129,6.255,1.052,9.056
		c3.595,10.907,4.715,21.777,5.137,32.853l0.172,6.058c0.053,2.591,0.086,5.194,0.12,7.814c0.206,16.096,0.411,32.192,0.617,48.289
		c0.115,9.006,0.317,18.013,0.128,27.011c-0.116,5.513-0.038,12.734-4.246,16.958c-4.579,4.596-16.732,8.296-19.816,8.796
		s-19.584,0.77-20.783,0.698c-3.839-0.229-7.862-0.477-11.441-1.976c-3.506-1.469-3.864-5.224-4.034-8.544
		c-0.023-0.463-0.034-0.925-0.045-1.387c0.368-0.265,0.751-0.514,1.166-0.729c2.866-1.498,6.062,1.041,8.121,2.771
		c1.477,1.241,3.224,2.9,4.583,4.282l9.717-0.877"/>
	<path id="cal_x5F_014-1R" style="fill:none;stroke:#231F20;stroke-miterlimit:10;" d="M151.756,60.262
		c0.396,2.836,0.796,5.674,1.189,8.515c1.948,4.6,5.968,8.224,10.858,9.918c1.833,0.636-2.42,21.186-2.771,23.514l-4.58-3.562
		c0,5.165,0.588,10.321,0.647,15.514c0.022,1.962,0.054,3.92,0.08,5.88l0.083,6.076c0.478,31.114,1.354,62.028,1.25,93.211
		l-4.765,15.325c-1.774,5.8-5.236,11.13-8.961,15.388c-5.813,6.644-12.914,7.508-18.914,8.841c-6,1.334-23.13,1.221-29.094,0.515
		c-3.874-0.459-8.54-1.181-9.985-5.387c-2.537-7.383-0.801-17.015,0.734-24.4c1.456-7.004,3.338-14.431,6.601-20.839
		c1.234-2.422,3.945-6.486,7.205-6.153c4.586,0.469,8.376,4.949,11.379,8.088c3.555,3.715,7.583,7.585,10.115,12.107
		c1.017,1.816,1.773,3.669,2.311,5.546l-9.409,2.93"/>
	<path id="cal_x5F_012-2L" style="fill:none;stroke:#231F20;stroke-miterlimit:10;" d="M413.875,351.944
		c-0.519-0.595-6.961,8.611-7.271,9.097c-1.06,1.662-4.93,6.016-5.875,7.743c-0.007,0.182,0.665,2.495,0.752,2.595
		c4.194,4.816,9.021,8.845,14.305,12.595"/>
	<path id="cal_x5F_012-2R" style="fill:none;stroke:#231F20;stroke-miterlimit:10;" d="M390.002,352.302
		c5.471,3.381,9.626,8.503,13.475,13.368c0.084,0.105,0.734,2.095,0.729,2.275c-0.944,1.726-4.794,6.402-5.852,8.062
		c-0.311,0.485-6.841,9.64-7.271,9.097"/>
	<path id="cal_x5F_012-1L" style="fill:none;stroke:#231F20;stroke-miterlimit:10;" d="M390.002,352.302
		c-1.375-0.85-14.188,18.325-12.394,19.435c5.471,3.381,9.626,8.503,13.475,13.368"/>
	<path id="cal_x5F_012-1R" style="fill:none;stroke:#231F20;stroke-miterlimit:10;" d="M413.875,351.944
		c4.194,4.816,9.021,8.844,14.304,12.595c1.298,0.92-4.63,9.564-5.122,10.338c-0.374,0.585-6.252,9.819-7.271,9.097"/>
	<path id="cal_x5F_011L" style="fill:none;stroke:#231F20;stroke-miterlimit:10;" d="M303.75,141.978
		c0.512-6.78,3.513-9.981,9.221-12.114c65.626-24.52,131.157-49.294,196.719-73.99c2.103-0.792,4.252-1.459,6.944-2.377"/>
	<path id="cal_x5F_011R" style="fill:none;stroke:#231F20;stroke-miterlimit:10;" d="M303.75,141.978
		c2.253-0.751,3.865-1.21,5.418-1.817c37.742-14.75,75.441-29.61,113.228-44.246c29.124-11.281,58.345-22.313,87.552-33.377
		c3.93-1.488,7.075-3.26,6.687-9.04"/>
	<path id="cal_x5F_010L" style="fill:none;stroke:#231F20;stroke-miterlimit:10;" d="M346.334,157.387
		c0.49-2.235,3.008-1.412,4.534-1.78c5.14-1.267,11.24-2.587,12.271-2.891c3.815-1.193,7.672-2.227,11.278-4.056
		c-7.204-1.636-14.875-4.241-22.566-3.05c-2.014,0.304-1.776,3.449-3.829,3.957"/>
	<path id="cal_x5F_010R" style="fill:none;stroke:#231F20;stroke-miterlimit:10;" d="M346.334,157.387
		c7.131,0.958,14.051,3.247,21.539,2.659c4.397-0.372,7.883-4.226,10.09-7.562c3.177-4.808,9.253-8.402,8.273-14.914
		c-0.137-0.864-0.99-1.475-1.724-1.688c-3.86-1.137-12.473-2.319-17.07-2.972c-1.25-0.204-4.736-0.87-7.06-0.875
		c-4.908-0.007-6.587,5.464-8.812,8.722c-1.812,2.62-4.734,5.227-3.549,8.811"/>
	<path id="cal_x5F_009L" style="fill:none;stroke:#231F20;stroke-miterlimit:10;" d="M429.705,271.16
		c-1.857,2.729-2.158,4.912-3.505,6.709c-2.659,3.55-6.35,0.435-7.263-2.857c-2.08-7.495,0.41-14.925,2.112-22.212
		c0.629-2.678,1.43-4.971-0.16-6.904"/>
	<path id="cal_x5F_009R" style="fill:none;stroke:#231F20;stroke-miterlimit:10;" d="M429.705,271.16l0.223,0.621
		c2.1,5.841-0.371,18.804-8.426,17.646c-14.765-2.122-3.276-35.47-0.612-43.531"/>
	<path id="cal_x5F_008L" style="fill:none;stroke:#231F20;stroke-miterlimit:10;" d="M491.837,187.203
		c-8.502,8.763-19.024,20.566-32.287,18.73c-16.006-2.214,3.695-18.983,5.229-26.369c3.186-15.337-14.146-10.046-19.15-5.66
		c-0.775,0.68-1.77,3.4-2.447,6.192"/>
	<path id="cal_x5F_008R" style="fill:none;stroke:#231F20;stroke-miterlimit:10;" d="M491.837,187.203
		c0.638-0.658-0.128,2.975-0.682,4.093c-12.037,24.261-42.958,31.586-43.469,15.582c-0.346-10.877,7.107-18.509,12.533-27.112
		l0.168-0.268c-5.531-0.375-12.17,1.783-15.641,6.204c-2.941,3.746-2.678-1.024-1.565-5.605"/>
	<path id="cal_x5F_007L" style="fill:none;stroke:#231F20;stroke-miterlimit:10;" d="M447.325,148.743
		c0.489-2.235,3.008-1.412,4.534-1.78c5.14-1.267,11.24-2.587,12.271-2.892c3.815-1.192,7.671-2.227,11.278-4.056
		c-7.204-1.637-14.875-4.241-22.566-3.05c-2.014,0.304-1.776,3.449-3.83,3.956"/>
	<path id="cal_x5F_007R" style="fill:none;stroke:#231F20;stroke-miterlimit:10;" d="M447.325,148.743
		c7.131,0.958,14.051,3.247,21.539,2.659c4.397-0.372,7.883-4.226,10.09-7.562c3.176-4.808,9.253-8.402,8.273-14.914
		c-0.138-0.864-0.99-1.475-1.724-1.688c-3.86-1.137-12.473-2.319-17.07-2.972c-1.25-0.205-4.736-0.87-7.06-0.875
		c-4.908-0.007-6.587,5.463-8.812,8.721c-1.812,2.62-4.734,5.227-3.55,8.811"/>
	<path id="cal_x5F_006-2L" style="fill:none;stroke:#231F20;stroke-miterlimit:10;" d="M431.836,214.119
		c-0.253-0.016-0.984-0.974-0.965-1.432c0.517-12.485-2.336-24.537-4.601-36.676c-0.728-3.897-1.294-7.92-1.154-11.857
		c0.184-5.188,3.391-8.427,8.328-9.938c0.588-0.18,1.157-0.426,1.725-0.665c0.181-0.076,0.328-0.229,0.487-0.35
		c-1.931-3.316-2.844-3.187-8.611,1.546c0.196-4.333,0.604-8.154,3.507-11.083c0.577-0.583,0.949-1.125,1.139-1.687l2.901-0.419"/>
	<path id="cal_x5F_006-2R" style="fill:none;stroke:#231F20;stroke-miterlimit:10;" d="M431.836,214.119
		c0.377-2.979,1.007-5.95,1.086-8.936c0.326-12.354-1.506-24.44-5.288-36.185c-0.862-2.677-0.25-4.202,2.099-5.119
		c3.439-1.341,6.874-2.95,10.463-3.579c4.144-0.727,5.628-3.682,6.002-6.805c0.221-1.838-1.508-4.396-3.079-5.854
		c-2.58-2.393-5.747-4.153-8.526-6.084"/>
	<path id="cal_x5F_006-1L" style="fill:none;stroke:#231F20;stroke-miterlimit:10;" d="M410.796,119.635
		c-0.348-2.831,1.26-6.229,2.948-8.796c0.552-0.838,4.818-0.645,5.824,0.478c3.884,4.335,7.312,9.119,10.544,13.978
		c1.381,2.074,1.864,4.744,3.728,7.077c0.739-4.782,1.351-9.588,2.26-14.337c0.62-3.234,1.285-6.553,2.605-9.534
		c1.501-3.391,3.667-6.884,8.373-4.599c4.143,2.012,5.128,6.482,2.482,11.653"/>
	<path id="cal_x5F_006-1R" style="fill:none;stroke:#231F20;stroke-miterlimit:10;" d="M410.796,119.635
		c0.201,1.642,4.84,4.476,6.408,3.892c5.038-1.878,6.343,1.43,7.864,4.424c2.953,5.81,5.591,11.781,9.048,19.152
		c1.02-4.611,1.867-7.888,2.454-11.213c1.151-6.518,1.769-13.158,3.353-19.563c1.174-4.75,3.162-5.068,7.144-2.286
		c0.687,0.48,1.434,0.875,2.494,1.515"/>
	<path id="cal_x5F_005-4L" style="fill:none;stroke:#231F20;stroke-miterlimit:10;" d="M346.227,164.583
		c-1.374-0.85-12.063,13.742-12.736,18.128c2.454,3.94,9.969,9.81,13.817,14.675"/>
	<path id="cal_x5F_005-4R" style="fill:none;stroke:#231F20;stroke-miterlimit:10;" d="M346.227,164.583
		c4.469,6.408,14.209,15.463,14.203,15.644c-0.944,1.726-4.794,6.402-5.852,8.062c-0.311,0.486-6.841,9.64-7.271,9.097"/>
	<path id="cal_x5F_005-3L" style="fill:none;stroke:#231F20;stroke-miterlimit:10;" d="M346.637,189.589
		c-0.519-0.595-6.961,8.611-7.271,9.096c-1.06,1.662-4.931,6.016-5.876,7.743c-0.006,0.182,9.773,11.439,15.057,15.19"/>
	<path id="cal_x5F_005-3R" style="fill:none;stroke:#231F20;stroke-miterlimit:10;" d="M346.637,189.589
		c4.194,4.816,7.244,10.268,14.304,12.594c1.511,0.498-4.63,9.565-5.123,10.339c-0.373,0.584-6.252,9.819-7.271,9.097"/>
	<path id="cal_x5F_005-2L" style="fill:none;stroke:#231F20;stroke-miterlimit:10;" d="M351.556,218.788
		c-11.48,6.5-14.194,15.332-17.957,27.896c-2.416,8.065-4.332,16.739,1.005,24.052c1.11,1.522,2.46,2.802,3.941,3.931l-0.016,0.021
		c0.026,0.011,0.062,0.025,0.09,0.037c0.847,0.64,1.725,1.245,2.654,1.785c0,0,12.905,5.112,15.447,5.919
		c8.016,2.545,15.462,6.047,20.88,12.698c5.305,6.513,5.364,23.081,5.364,23.081l1.104,1.402"/>
	<path id="cal_x5F_005-2R" style="fill:none;stroke:#231F20;stroke-miterlimit:10;" d="M351.556,218.788
		c-9.097,6.688-16.61,22.488-7.488,32.054c2.396,2.394,5.158,4.144,8.104,5.555l0,0c0.009,0.004,0.02,0.01,0.028,0.014
		c0.569,0.272,1.143,0.536,1.725,0.785l-0.031,0.048c7.977,3.859,31.242,14.65,34.022,19.642c4.205,7.55,4.412,16.113,3.044,24.479
		c-1.064,6.507-5.004,18.478-5.004,18.478l-1.887-0.189"/>
	<path id="cal_x5F_005-1L" style="fill:none;stroke:#231F20;stroke-miterlimit:10;" d="M384.995,317.605
		c0.703,0.288,0.819,2.579,0.819,2.579c-2.113,5.712-4.918,11.742-8.489,16.722c-5.516,7.691-14.394,11.279-23.59,8.109
		c-8.691-2.996-16.466-9.695-20.37-18.091c-4.152-8.93-3.83-18.126-1.137-27.447c2.265-7.836,5.176-15.677,9.032-22.969
		c0,0,33.806-42.287,38.842-56.172c6.806-18.763-6.777-38.705-20.354-51.223"/>
	<path id="cal_x5F_005-1R" style="fill:none;stroke:#231F20;stroke-miterlimit:10;" d="M384.995,317.605
		c-0.703-0.287-2.03,0.602-2.03,0.602c-0.545,0.624-1.114,1.229-1.707,1.81c-3.735,3.666-8.729,5.002-13.836,4.726
		c-9.345-0.505-17.827-7.215-23.106-14.5c-2.694-3.718-4.473-8.042-5.35-12.532c-0.433-2.218-0.489-4.485-0.429-6.735
		c0.014-0.548,0.056-1.094,0.112-1.637c2.236-3.648,4.968-7.048,7.922-10.294c0,0,26.635-13.959,32.386-20.654
		c6.3-7.334,9.821-17.201,11.251-26.844c1.291-13.207-3.23-25.595-8.437-37.541c-1.738-3.988-3.119-9.145-5.876-12.561
		c-3.997-4.953-11.052-8.573-16.147-12.331"/>
	<path id="cal_x5F_004-2L" style="fill:none;stroke:#231F20;stroke-miterlimit:10;" d="M538.497,305.266l-1.829,1.176
		c-0.325,0.748-0.813,2.229-1.045,3.005c-4.263,14.305-6.846,29.143-7.292,44.096c-0.13,4.366-0.471,9.971,1.734,13.876
		c0.582,2.01,1.929,3.781,3.685,4.914c0.408,0.264,0.839,0.493,1.287,0.683c4.917,2.079,9.012-0.712,10.694-5.405
		c1.656-4.62,1.981-9.919,1.649-14.791"/>
	<path id="cal_x5F_004-2R" style="fill:none;stroke:#231F20;stroke-miterlimit:10;" d="M538.497,305.266
		c-0.944,4.193-2.138,9.938-3.021,14.144c-2.064,9.831-3.971,19.728-3.158,29.813c0.302,3.743,1.39,7.634,3.04,11.005
		c2.136,4.363,5.67,4.286,8.3,0.164c1.425-2.234,2.392-4.762,3.781-7.599"/>
	<path id="cal_x5F_004-1L" style="fill:none;stroke:#231F20;stroke-miterlimit:10;" d="M521.569,286.253
		c-0.729,2.934-0.928,6.074,0.959,3.671c2.194-2.795,6.392-4.159,9.889-3.922l-0.106,0.169c-3.431,5.438-8.143,10.265-7.924,17.141
		c0.174,5.459,5.946,6.618,12.419,4.125l1.452-0.618c5.104-2.363,10.412-6.91,13.611-13.357c0.351-0.707,0.81-3.48,0.084-2.696"/>
	<path id="cal_x5F_004-1R" style="fill:none;stroke:#231F20;stroke-miterlimit:10;" d="M521.569,286.253
		c0.428-1.72,1.037-3.369,1.516-3.788c3.165-2.773,14.122-6.118,12.108,3.578c-0.97,4.67-13.426,15.271-3.306,16.672
		c8.384,1.161,15.268-6.852,20.363-12.354"/>
	<path id="cal_x5F_003L" style="fill:none;stroke:#231F20;stroke-miterlimit:10;" d="M490.545,235.604l-11.963-2.407
		c4.351-1.394,8.7-2.788,13.056-4.167c4.051-1.282,5.675-3.83,5.978-8.207c1.044-15.088-0.185-30.073-1.252-45.083
		c-0.941-13.256-1.779-26.52-2.61-39.784c-0.851-13.57-1.624-27.145-2.475-40.715c-0.083-1.323-0.165-2.797-0.779-3.908
		c-2.262-4.09-1.076-7.929,0.471-11.801c1.119-2.804,2.249-5.604,3.946-8.409c5.975,13.113,11.485,26.189,15.131,39.939
		c-0.206,0.149-0.413,0.298-0.619,0.447"/>
	<path id="cal_x5F_003R" style="fill:none;stroke:#231F20;stroke-miterlimit:10;" d="M490.415,235.647l9.143-2.253
		c3.878-7.713,5.363-16.271,6.204-25.022c1.823-18.978-0.07-37.894-1.307-56.812c-0.939-14.39-2.004-28.771-2.995-43.157
		c-0.052-0.765,0.058-1.541,0.104-2.583c2.6,2.214,4.91,4.183,7.222,6.151c0.214-0.154,0.428-0.309,0.642-0.462"/>
	<path id="cal_x5F_002L" style="fill:none;stroke:#231F20;stroke-miterlimit:10;" d="M533.762,227.81
		c-0.275-0.084-0.551-0.168-0.827-0.253c0.354-5.629,1.054-11.262,0.986-16.886c-0.118-9.879-0.572-19.76-1.134-29.626
		c-0.566-9.974-1.417-19.931-2.173-29.893c-0.966-12.733-1.978-25.463-2.938-38.196c-0.697-9.243-1.399-18.486-2.003-27.735
		c-0.88-13.465-1.659-26.937-2.527-40.403c-0.085-1.323-0.187-2.795-0.805-3.907c-2.402-4.32-1.032-8.319,0.663-12.36
		c1.092-2.602,2.143-5.22,3.803-7.839"/>
	<path id="cal_x5F_002R" style="fill:none;stroke:#231F20;stroke-miterlimit:10;" d="M533.762,227.81
		c0.421-0.665,0.922-1.294,1.249-2.002c4.731-10.227,7.521-21.044,7.521-32.239c0.001-12.756-0.906-25.521-1.701-38.265
		c-0.897-14.388-2.065-28.759-3.198-43.132c-1.415-17.964-2.917-35.921-4.366-53.882c-0.078-0.966-0.01-1.943-0.01-3.492
		c2.824,2.549,5.103,4.606,7.382,6.664c0.419-0.277,0.839-0.554,1.258-0.831c-3.505-13.789-9.315-26.747-15.089-39.92"/>
	<path id="cal_x5F_001-3L" style="fill:none;stroke:#231F20;stroke-miterlimit:10;" d="M561.291,248.855
		c0.309-1.125,0.341-5.478-1.165-6.356c-9.749-5.686-21.925-6.45-32.864-8.013c-7.637-1.092-15.369-0.887-23.061-1.003
		c-1.55-0.023-3.097-0.057-4.644-0.089l-20.976-0.197c-7.594-0.023-15.825-0.768-23.073,1.449
		c-8.785,2.688-18.131,8.564-19.19,18.536c-1.051,9.896,4.553,20.122,9.403,28.342c2.789,4.727,6.303,8.203,10.414,11.599
		l-0.004,0.004c0.516,1.026,10.305,10.894,10.855,11.758c1.621,2.546,3.253,4.542,4.526,6.434"/>
	<path id="cal_x5F_001-3R" style="fill:none;stroke:#231F20;stroke-miterlimit:10;" d="M561.439,249.003l-0.738,5.313l-28.922-2.629
		c0,0-34.984,1.152-43.401,1.3c-8.417,0.146-36.15,1.082-36.15,1.082s-6.129,0.955-7.792,7.022
		c-1.663,6.068,5.288,13.79,5.288,13.79s7.122,4.915,9.967,9.141c2.845,4.225,7.984,14.502,9.226,17.882
		c1.241,3.379,2.642,9.693,2.642,9.693"/>
	<path id="cal_x5F_001-2L" style="fill:none;stroke:#231F20;stroke-miterlimit:10;" d="M491.475,313.934l4.224-12.155
		c0.28,9.794,11.585,13.914,18.258,19.153c3.452,2.711,6.799,5.824,8.327,10.054c1.946,5.384,1.479,11.076,0.279,16.574
		c-0.475,2.175-0.968,4.353-1.518,6.5c-2.572,10.048-6.455,19.409-16.278,24.507c-7.989,4.146-17.258,6.047-26.224,6.204
		c-14.343,0.251-31.335-6.419-39.887-18.391c-4.831-6.764-5.4-14.658-4.273-22.554c0,0,6.192-23.057,6.365-23.5l0.016-0.057h0.007
		c2.258-5.77,5.057-11.313,8.624-16.519c2.372-3.462,4.965-6.72,7.723-9.819l5.418-5.685c5.827-5.724,12.191-10.867,18.759-15.712
		c7.636-5.633,16.454-10.467,25.248-14.192c8.111-3.437,15.491-5.65,24.789-6.536c0,0,12.557-3.543,18.006-3.089
		s11.512,4.418,11.512,4.418"/>
	<path id="cal_x5F_001-2R" style="fill:none;stroke:#231F20;stroke-miterlimit:10;" d="M491.365,313.988l-1.868,9.922
		c1.803,12.616,19.367,16.547,25.549,26.629c0.442,0.722,0.81,1.525,1.115,2.369l-0.082,0.075c-4.968,4.394-11.856,6.639-18.2,8.086
		c-14.287,3.261-28.083,1.297-40.788-6.097c-4.431-2.578-11.023-4.312-12.054-10.203c-3.497-19.992,13.887-37.331,20.48-42.821
		l2.629-2.143c8.307-6.632,17.265-12.549,25.897-18.191c8.72-5.698,17.87-9.61,27.933-12.247c5.463-1.432,11.025-2.464,16.617-3.239
		c5.151-0.715,10.56,0.216,15.48-1.54c3.97-1.416,6.619-11.452,6.619-11.452"/>
	<path id="cal_x5F_001-1L" style="fill:none;stroke:#231F20;stroke-miterlimit:10;" d="M401.048,140.554
		c-1.155,0.333-1.986,2.679-2.336,3.67c-0.413,1.169-0.778,2.357-1.136,3.532c-1.316,4.333-2.978,9.209-2.95,13.797
		c0.027,4.69,0.297,9.535,2.766,13.658c0.792,1.322,1.851,2.344,3.067,3.142c-0.204,1.28-0.333,2.556-0.333,3.813
		c0.007,12.716-0.12,25.43-0.293,38.144c-0.039,0.01-0.079,0.021-0.119,0.03c-0.069,6.03-0.116,12.061-0.147,18.091
		c-0.033,2.068-0.064,4.138-0.099,6.206c0.023-0.001,0.047-0.002,0.07-0.003c-0.024,9.588,0.011,19.176,0.15,28.765
		c0.292,20.055-1.558,41.59,12.279,57.894c5.796,6.829,13.713,10.93,22.415,12.535l10.654,0.943
		c2.229,0.038,4.458,0.014,6.673-0.023c5.357-0.09,10.918,0.125,16.213-0.766c10.88-1.83,20.561-13.514,25.999-27.49"/>
	<path id="cal_x5F_001-1R" style="fill:none;stroke:#231F20;stroke-miterlimit:10;" d="M401.048,140.414
		c0.026,4.302-0.018,9.675,2.771,13.258c2.997,3.852,7.663,4.922,12.312,5.353c1.033,0.095-1.754,10.735-1.921,11.347
		c-0.271,0.986-2.538,10.889-4.131,10.742c-1.172-0.109-2.396-0.263-3.612-0.501c-0.061,7.405-0.147,14.811-0.266,22.217
		c-0.085,5.269-0.177,10.537-0.269,15.806c0,0.045-0.001,0.089-0.001,0.134c-0.037,12.686,0.021,25.372,0.255,38.057
		c0.202,10.896-0.691,22.708,2.072,33.347c2.229,8.578,6.622,16.861,13.407,22.716c5.485,4.732,11.758,7.462,18.565,8.769
		l5.833,0.779c0.647,0.051,1.298,0.092,1.953,0.121c6.017,0.271,12.021,0.014,18.037-0.115c4.275-0.091,8.552-0.208,12.567-1.871
		c7.479-3.098,12.548-9.457,15.29-16.939c-0.085,0.231,1.532-3.564,1.858-3.511c0.326,0.055-1.849,16.37-1.849,16.37"/>
</g>
<g id="Layer_1">
</g>
</svg>
