<?xml version="1.0" encoding="iso-8859-1"?>
<!-- Generator: Adobe Illustrator 16.0.0, SVG Export Plug-In . SVG Version: 6.00 Build 0)  -->
<!DOCTYPE svg PUBLIC "-//W3C//DTD SVG 1.1//EN" "http://www.w3.org/Graphics/SVG/1.1/DTD/svg11.dtd">
<svg version="1.1" id="Layer_1" xmlns="http://www.w3.org/2000/svg" xmlns:xlink="http://www.w3.org/1999/xlink" x="0px" y="0px"
	 width="2048px" height="1536px" viewBox="0 0 2048 1536" style="enable-background:new 0 0 2048 1536;" xml:space="preserve">
<path style="fill:none;stroke:#000000;stroke-miterlimit:10;" d="M261.05,232.608l48.068,31.858c0,0-23.287-62.374,19.128-127.243
	s113.937-29.94,195.439-10.812C605.188,145.54,666.73,83.166,652.592,0"/>
<path style="fill:none;stroke:#000000;stroke-miterlimit:10;" d="M261.05,232.608l-23.455-15.546
	c-6.653-93.146,123.917-172.153,245.338-141.381C604.355,106.452,650.928,31.187,652.592,0"/>
<path style="fill:none;stroke:#000000;stroke-miterlimit:10;" d="M62.092,110.139l-6.915,35.217c0,0,101.254,1.249,192.113,113.937
	c90.858,112.688,234.527,79.839,286.921,32.435c52.395-47.404-9.979-107.284-29.939-105.62c-19.96,1.663-64.869,6.653-30.771,47.404
	"/>
<path style="fill:none;stroke:#000000;stroke-miterlimit:10;" d="M62.092,110.139l6.148-31.315
	c65.945,0.832,179.05,105.62,241.425,174.647c62.374,69.028,187.123,54.89,211.24,0c24.118-54.889-47.404-51.562-47.404-19.959"/>
</svg>
