<?xml version="1.0" encoding="iso-8859-1"?>
<!-- Generator: Adobe Illustrator 16.0.0, SVG Export Plug-In . SVG Version: 6.00 Build 0)  -->
<!DOCTYPE svg PUBLIC "-//W3C//DTD SVG 1.1//EN" "http://www.w3.org/Graphics/SVG/1.1/DTD/svg11.dtd">
<svg version="1.1" xmlns="http://www.w3.org/2000/svg" xmlns:xlink="http://www.w3.org/1999/xlink" x="0px" y="0px"
	 width="521.521px" height="270.545px" viewBox="0 0 521.521 270.545" style="enable-background:new 0 0 521.521 270.545;"
	 xml:space="preserve">
<g id="strokeL">
	<path style="fill:none;stroke:#010101;stroke-miterlimit:10;" d="M0.5,0.038c0,135.064,156.272,107.544,219.742,83.163
		c47.295-18.168,114.366-38.595,169.427,7.266c46.022,38.333,31.657,136.57-38.755,143.718
		c-51.046,5.182-79.126-27.452-66.207-58.941c64.592,16.955,91.236-58.94,76.703-86.392"/>
	<path style="fill:none;stroke:#010101;stroke-miterlimit:10;" d="M0.5,0.038c7.267,96.889,142.296,86.136,213.856,55.821
		c95.39-40.411,235.397-55.449,283.505,11.194c81.017,112.229-68.629,218.807-170.363,201.043
		c-101.732-17.763-99.614-101.434-86.391-133.054c19.653-46.997,83.97-63.952,120.303-46.189"/>
</g>
<g id="Layer_1">
</g>
</svg>
